<?xml version="1.0" encoding="UTF-8"?>
<svg version="1.1" xmlns="http://www.w3.org/2000/svg" width="284" height="358">
<path d="M0 0 C93.72 0 187.44 0 284 0 C284 118.14 284 236.28 284 358 C190.28 358 96.56 358 0 358 C0 239.86 0 121.72 0 0 Z " fill="#FEFEFE" transform="translate(0,0)"/>
<path d="M0 0 C2.67434127 1.34482595 5.27571869 2.75128706 7.86303711 4.25732422 C8.88606934 4.85037354 9.90910156 5.44342285 10.96313477 6.05444336 C12.06061035 6.69502686 13.15808594 7.33561035 14.28881836 7.99560547 C15.44926081 8.6697002 16.6099091 9.34344072 17.77075195 10.0168457 C20.18265961 11.41631478 22.59367422 12.81730518 25.00415039 14.21923828 C29.49509932 16.82935987 33.99693507 19.42051011 38.49853516 22.01220703 C48.81708369 27.95311857 59.11040063 33.93553651 69.38696289 39.94873047 C74.92440611 43.18248757 80.47656336 46.38879371 86.04663086 49.56591797 C86.9911763 50.10470329 86.9911763 50.10470329 87.95480347 50.65437317 C91.02258955 52.40324616 94.09195919 54.14927649 97.16333008 55.8918457 C98.27724121 56.52550049 99.39115234 57.15915527 100.53881836 57.81201172 C101.5172168 58.36703369 102.49561523 58.92205566 103.50366211 59.49389648 C104.52588867 60.09258545 105.54811523 60.69127441 106.60131836 61.30810547 C107.29867599 61.64564346 107.99603363 61.98318146 108.71452332 62.33094788 C114.1352783 65.17847618 114.1352783 65.17847618 115.38198853 68.20036316 C115.74497814 70.51476625 115.8410849 72.70364263 115.83959961 75.04638672 C115.85911179 75.88598434 115.87862396 76.72558197 115.89872742 77.59062195 C115.926013 79.36303319 115.9323068 81.13587637 115.91894531 82.90844727 C115.91384148 85.60837565 116.02029871 88.28865273 116.13452148 90.98583984 C116.34593529 103.11118044 116.34593529 103.11118044 113.34310913 106.89251709 C109.84247959 109.89697641 105.85731977 111.5745619 101.60131836 113.30810547 C99.81743903 114.28464284 98.04330725 115.27969922 96.28881836 116.30810547 C95.06140905 116.97800211 93.83300816 117.64611198 92.60131836 118.30810547 C93.4353418 118.81599609 94.26936523 119.32388672 95.12866211 119.84716797 C96.25401367 120.53552734 97.37936523 121.22388672 98.53881836 121.93310547 C99.6409668 122.60599609 100.74311523 123.27888672 101.87866211 123.97216797 C102.46059326 124.35775879 103.04252441 124.74334961 103.64208984 125.140625 C105.61719783 126.39581587 105.61719783 126.39581587 108.03125 127.22167969 C111.07766535 128.59666632 112.59839053 129.59994438 114.60131836 132.30810547 C116.15137012 138.74241078 115.44024689 145.63227089 115.16381836 152.18310547 C115.11864881 154.03457129 115.07758851 155.88614222 115.04077148 157.73779297 C114.94183279 162.26383089 114.78669904 166.78481688 114.60131836 171.30810547 C111.96078964 172.83148742 109.32025372 174.35485688 106.6796875 175.87817383 C104.34281713 177.22643817 102.00604977 178.57487934 99.66943359 179.92358398 C93.79409065 183.31451988 87.91719141 186.70264608 82.03491211 190.08154297 C69.93023121 197.04006667 57.88541439 204.08866651 45.8894043 211.23291016 C36.28745081 216.93607452 26.60478313 222.49048655 16.88696289 227.9934082 C15.78852051 228.61675049 14.69007813 229.24009277 13.55834961 229.88232422 C12.52661621 230.4641748 11.49488281 231.04602539 10.43188477 231.64550781 C7.29333824 233.48900461 4.31373802 235.50096166 1.38916016 237.66674805 C-0.39868164 238.30810547 -0.39868164 238.30810547 -2.78930664 237.61230469 C-5.46939767 236.27276069 -8.07069875 234.86631111 -10.66040039 233.35888672 C-11.68327148 232.76591797 -12.70614258 232.17294922 -13.76000977 231.56201172 C-14.85764648 230.92134766 -15.9552832 230.28068359 -17.08618164 229.62060547 C-18.24808512 228.94577167 -19.41019835 228.27129891 -20.57250977 227.59716797 C-22.98592204 226.19703457 -25.39842624 224.79535528 -27.81030273 223.39257812 C-33.33135235 220.18319278 -38.86569765 216.99685483 -44.39868164 213.80810547 C-46.56541073 212.55821367 -48.7320772 211.30821332 -50.89868164 210.05810547 C-52.50743164 209.12998047 -52.50743164 209.12998047 -54.14868164 208.18310547 C-57.39868164 206.30810547 -60.64868164 204.43310547 -63.89868164 202.55810547 C-64.97263184 201.9385498 -66.04658203 201.31899414 -67.15307617 200.68066406 C-69.30520295 199.4389902 -71.45722237 198.19713025 -73.60913086 196.95507812 C-78.64899141 194.04643724 -83.68985656 191.13958649 -88.73468018 188.23956299 C-90.51617742 187.21534882 -92.29732486 186.19052896 -94.07836914 185.16552734 C-96.30944789 183.88177171 -98.54117737 182.59914608 -100.77368164 181.31787109 C-101.78688477 180.73457031 -102.80008789 180.15126953 -103.84399414 179.55029297 C-104.72587402 179.04353027 -105.60775391 178.53676758 -106.51635742 178.01464844 C-107.46752441 177.45148926 -108.41869141 176.88833008 -109.39868164 176.30810547 C-110.08570663 175.9757338 -110.77273163 175.64336212 -111.48057556 175.30091858 C-116.93187413 172.43731876 -116.93187413 172.43731876 -118.18133545 169.41485596 C-118.54223035 167.10113265 -118.63844756 164.9115885 -118.63696289 162.56982422 C-118.65647507 161.73022659 -118.67598724 160.89062897 -118.6960907 160.02558899 C-118.72337628 158.25317775 -118.72967009 156.48033456 -118.71630859 154.70776367 C-118.71120476 152.00783529 -118.81766199 149.32755821 -118.93188477 146.63037109 C-119.14329857 134.50503049 -119.14329857 134.50503049 -116.14047241 130.72369385 C-112.63984287 127.71923453 -108.65468305 126.04164904 -104.39868164 124.30810547 C-102.61480231 123.33156809 -100.84067053 122.33651172 -99.08618164 121.30810547 C-97.85877233 120.63820882 -96.63037144 119.97009895 -95.39868164 119.30810547 C-97.37625888 118.07632243 -99.35568339 116.84767724 -101.33618164 115.62060547 C-102.43833008 114.93611328 -103.54047852 114.25162109 -104.67602539 113.54638672 C-108.85757393 111.03219227 -113.13349979 108.67765094 -117.39868164 106.30810547 C-117.39868164 93.10810547 -117.39868164 79.90810547 -117.39868164 66.30810547 C-113.33555664 63.99810547 -109.27243164 61.68810547 -105.08618164 59.30810547 C-95.30216457 53.73069314 -85.57272219 48.07468795 -75.89868164 42.30810547 C-66.72112564 36.83911337 -57.49612092 31.46672682 -48.21118164 26.18310547 C-39.16672886 21.03563212 -30.13954078 15.86126295 -21.14868164 10.62060547 C-20.17906494 10.05647949 -19.20944824 9.49235352 -18.21044922 8.91113281 C-17.29803467 8.3782666 -16.38562012 7.84540039 -15.44555664 7.29638672 C-14.58510742 6.79703613 -13.7246582 6.29768555 -12.83813477 5.78320312 C-11.23861435 4.81599912 -9.6670367 3.80064889 -8.13110352 2.73535156 C-7.44081055 2.25791504 -6.75051758 1.78047852 -6.03930664 1.28857422 C-5.45181641 0.85826904 -4.86432617 0.42796387 -4.2590332 -0.01538086 C-2.39868164 -0.69189453 -2.39868164 -0.69189453 0 0 Z " fill="#41A798" transform="translate(142.398681640625,13.69189453125)"/>
<path d="M0 0 C3.65843738 0.52136393 6.50401716 2.27968548 9.671875 4.10546875 C10.79867676 4.75201416 11.92547852 5.39855957 13.08642578 6.06469727 C14.30769988 6.77215545 15.52888914 7.4797601 16.75 8.1875 C18.01656088 8.91693865 19.2833279 9.64601948 20.55029297 10.37475586 C30.36458188 16.02658694 40.14603586 21.73511951 49.921875 27.453125 C56.726208 31.42944931 63.54904757 35.37344976 70.375 39.3125 C72.07100342 40.29198608 72.07100342 40.29198608 73.80126953 41.29125977 C74.84395996 41.89252686 75.88665039 42.49379395 76.9609375 43.11328125 C77.88696777 43.64735596 78.81299805 44.18143066 79.76708984 44.73168945 C81.1590113 45.5223118 82.56820979 46.28410489 84 47 C84 47.66 84 48.32 84 49 C83.48953125 49.2902002 82.9790625 49.58040039 82.453125 49.87939453 C71.70888109 55.99208826 60.99052924 62.14726539 50.3125 68.375 C49.33474609 68.94492676 48.35699219 69.51485352 47.34960938 70.10205078 C42.89586445 72.70361544 38.4545611 75.32227836 34.0390625 77.98828125 C28.43490667 81.36000473 22.75540188 84.59349617 17.0625 87.8125 C16.03576172 88.39708984 15.00902344 88.98167969 13.95117188 89.58398438 C12.96826172 90.14021484 11.98535156 90.69644531 10.97265625 91.26953125 C9.64633179 92.02133667 9.64633179 92.02133667 8.29321289 92.78833008 C6 94 6 94 3 95 C3 107.54 3 120.08 3 133 C13.13272962 127.42699871 23.19804955 121.76349752 33.1875 115.9375 C34.2089209 115.34437012 35.2303418 114.75124023 36.28271484 114.14013672 C40.78980505 111.51190755 45.26636129 108.86167828 49.65234375 106.03515625 C50.33466064 105.60146729 51.01697754 105.16777832 51.7199707 104.72094727 C52.94494383 103.93585299 54.15949403 103.13411939 55.36010742 102.31225586 C58.08884653 100.57181404 59.57611956 99.93524049 62.8125 100.4296875 C67.16900059 102.5759047 71.26519199 105.04244122 75.375 107.625 C76.62216797 108.3984375 76.62216797 108.3984375 77.89453125 109.1875 C79.93317962 110.45286795 81.96812882 111.72378866 84 113 C81.5849251 115.67813752 78.98947088 117.3043511 75.86328125 119.08203125 C74.82349121 119.67701416 73.78370117 120.27199707 72.71240234 120.88500977 C71.59043457 121.52108154 70.4684668 122.15715332 69.3125 122.8125 C67.53876625 123.8254655 65.76605798 124.84021083 63.99334717 125.85496521 C62.78081764 126.54885426 61.56796428 127.24217772 60.35479736 127.93495178 C54.50727896 131.27505327 48.68856383 134.66367461 42.875 138.0625 C41.90820312 138.62654541 40.94140625 139.19059082 39.9453125 139.77172852 C34.73774361 142.81077374 29.53625366 145.85988114 24.33984375 148.91796875 C22.70136475 149.87981079 22.70136475 149.87981079 21.02978516 150.86108398 C18.93531296 152.09077979 16.8424515 153.32322454 14.75146484 154.55883789 C13.80867676 155.11176514 12.86588867 155.66469238 11.89453125 156.234375 C11.06800049 156.72131836 10.24146973 157.20826172 9.38989258 157.70996094 C4.59078939 160.30046673 4.59078939 160.30046673 2 161 C-0.48168945 160.1640625 -0.48168945 160.1640625 -3.11328125 158.625 C-4.10126709 158.05918213 -5.08925293 157.49336426 -6.10717773 156.91040039 C-7.16493408 156.27996826 -8.22269043 155.64953613 -9.3125 155 C-10.42117432 154.35861084 -11.52984863 153.71722168 -12.67211914 153.05639648 C-14.98813033 151.71333649 -17.29935622 150.3647878 -19.60449219 149.00341797 C-22.75210929 147.14626051 -25.90873361 145.30591486 -29.0703125 143.47265625 C-32.99661737 141.19324437 -36.9165347 138.90339371 -40.83203125 136.60546875 C-45.23464529 134.02531554 -49.6496277 131.46795995 -54.07421875 128.92578125 C-54.95976692 128.41667961 -54.95976692 128.41667961 -55.86320496 127.89729309 C-58.72366667 126.25325211 -61.58541004 124.61153657 -64.44897461 122.97290039 C-69.40889029 120.12342204 -74.30272202 117.26696496 -79 114 C-77.87213676 110.61641028 -77.53688977 110.43749412 -74.58984375 108.79296875 C-73.49530884 108.17180176 -73.49530884 108.17180176 -72.37866211 107.53808594 C-71.57307861 107.09239258 -70.76749512 106.64669922 -69.9375 106.1875 C-68.18707423 105.19736691 -66.4370946 104.20644479 -64.6875 103.21484375 C-63.75808594 102.69132324 -62.82867187 102.16780273 -61.87109375 101.62841797 C-57.03183485 98.88370225 -52.23744899 96.06269888 -47.4375 93.25 C-38.65924191 88.1225728 -29.86647918 83.02059703 -21.0625 77.9375 C-19.9912085 77.31842773 -18.91991699 76.69935547 -17.81616211 76.06152344 C-16.79530518 75.47274414 -15.77444824 74.88396484 -14.72265625 74.27734375 C-13.27064819 73.40638062 -13.27064819 73.40638062 -11.78930664 72.51782227 C-9 71 -9 71 -6.28686523 70.13647461 C-3.34320141 69.10975023 -1.95259201 68.45915115 0 66 C1.65617815 59.76828777 1.16588494 53.07484111 1.0625 46.6875 C1.06557558 44.87954572 1.07269202 43.0715935 1.08398438 41.26367188 C1.10280315 36.84110385 1.06619026 32.42207972 1 28 C-12.02097246 35.11296614 -24.81150867 42.5720347 -37.5546875 50.16796875 C-38.62299805 50.79751465 -39.69130859 51.42706055 -40.79199219 52.07568359 C-42.97635077 53.38596627 -45.13811232 54.73450114 -47.27832031 56.11572266 C-48.32342773 56.77491699 -49.36853516 57.43411133 -50.4453125 58.11328125 C-51.37102051 58.71567627 -52.29672852 59.31807129 -53.25048828 59.9387207 C-56 61 -56 61 -59.06445312 60.34301758 C-61.67380264 59.14923584 -64.0903997 57.91467845 -66.5234375 56.3984375 C-67.71259766 55.66367188 -67.71259766 55.66367188 -68.92578125 54.9140625 C-69.73402344 54.40617187 -70.54226562 53.89828125 -71.375 53.375 C-72.62216797 52.6015625 -72.62216797 52.6015625 -73.89453125 51.8125 C-75.93317962 50.54713205 -77.96812882 49.27621134 -80 48 C-77.5849251 45.32186248 -74.98947088 43.6956489 -71.86328125 41.91796875 C-70.82365234 41.32306641 -69.78402344 40.72816406 -68.71289062 40.11523438 C-67.02969727 39.16100586 -67.02969727 39.16100586 -65.3125 38.1875 C-63.53666257 37.17347826 -61.76184016 36.15769471 -59.98703003 35.14187622 C-58.77358226 34.44753409 -57.55981345 33.75375275 -56.34573364 33.06051636 C-50.54150908 29.74508193 -44.7685465 26.37708798 -39 23 C-32.59615545 19.25455814 -26.18427981 15.52390463 -19.75390625 11.82421875 C-19.15146088 11.47747101 -18.5490155 11.13072327 -17.92831421 10.77346802 C-14.99061073 9.08303604 -12.05174774 7.39469183 -9.11132812 5.70898438 C-8.06525391 5.10763672 -7.01917969 4.50628906 -5.94140625 3.88671875 C-5.01013916 3.35264404 -4.07887207 2.81856934 -3.11938477 2.26831055 C-1.08882777 1.1700457 -1.08882777 1.1700457 0 0 Z " fill="#79C1B6" transform="translate(139,52)"/>
<path d="M0 0 C18.85106383 8.85106383 18.85106383 8.85106383 24 14 C24.08865208 16.8843382 24.11521296 19.74462158 24.09765625 22.62890625 C24.09553383 23.92525246 24.09553383 23.92525246 24.09336853 25.24778748 C24.08775239 28.01939292 24.07519719 30.7909188 24.0625 33.5625 C24.05748708 35.4368478 24.05292381 37.31119685 24.04882812 39.18554688 C24.03777772 43.79039544 24.0205023 48.39518421 24 53 C21.35947128 54.52338195 18.71893536 56.04675141 16.07836914 57.57006836 C13.74149877 58.9183327 11.40473141 60.26677387 9.06811523 61.61547852 C3.19277229 65.00641441 -2.68412695 68.39454061 -8.56640625 71.7734375 C-20.67108715 78.7319612 -32.71590396 85.78056104 -44.71191406 92.92480469 C-54.31386755 98.62796905 -63.99653523 104.18238108 -73.71435547 109.68530273 C-74.81279785 110.30864502 -75.91124023 110.9319873 -77.04296875 111.57421875 C-78.07470215 112.15606934 -79.10643555 112.73791992 -80.16943359 113.33740234 C-83.30798012 115.18089914 -86.28758034 117.19285619 -89.2121582 119.35864258 C-91 120 -91 120 -93.390625 119.30419922 C-96.07071603 117.96465522 -98.67201711 116.55820564 -101.26171875 115.05078125 C-102.28458984 114.4578125 -103.30746094 113.86484375 -104.36132812 113.25390625 C-105.45896484 112.61324219 -106.55660156 111.97257812 -107.6875 111.3125 C-108.84940348 110.6376662 -110.01151671 109.96319344 -111.17382812 109.2890625 C-113.5872404 107.88892911 -115.9997446 106.48724981 -118.41162109 105.08447266 C-123.93267071 101.87508732 -129.46701601 98.68874937 -135 95.5 C-137.16672909 94.2501082 -139.33339556 93.00010785 -141.5 91.75 C-142.5725 91.13125 -143.645 90.5125 -144.75 89.875 C-149.625 87.0625 -149.625 87.0625 -154.5 84.25 C-156.11092529 83.3206665 -156.11092529 83.3206665 -157.75439453 82.37255859 C-159.9065213 81.13088473 -162.05854073 79.88902478 -164.21044922 78.64697266 C-169.25030977 75.73833177 -174.29117492 72.83148102 -179.33599854 69.93145752 C-181.11749578 68.90724335 -182.89864322 67.88242349 -184.6796875 66.85742188 C-186.91076625 65.57366625 -189.14249573 64.29104061 -191.375 63.00976562 C-196.98865365 59.77798665 -202.53291438 56.47428702 -208 53 C-204.34826629 49.92810959 -200.60577394 47.49667413 -196.45703125 45.14453125 C-195.84736008 44.79742599 -195.2376889 44.45032074 -194.60954285 44.09269714 C-192.67948209 42.99521101 -190.74604122 41.90384015 -188.8125 40.8125 C-187.50303489 40.06874714 -186.19378791 39.3246101 -184.88476562 38.58007812 C-175.49893606 33.24946803 -175.49893606 33.24946803 -173 32 C-172.49984375 32.56976563 -171.9996875 33.13953125 -171.484375 33.7265625 C-168.34510546 36.59929029 -164.99048703 38.38593908 -161.25 40.375 C-153.96569972 44.33454071 -146.77436098 48.42679779 -139.625 52.625 C-130.42839612 58.01634513 -121.19680176 63.34236184 -111.9375 68.625 C-111.33858948 68.96670227 -110.73967896 69.30840454 -110.12261963 69.66046143 C-107.35029812 71.24181907 -104.57668149 72.82037858 -101.79638672 74.38769531 C-100.11325912 75.35813138 -98.44655525 76.35922538 -96.81689453 77.41699219 C-94.86413225 78.73266517 -94.86413225 78.73266517 -92 80 C-88.3007441 78.85944076 -85.07309901 76.99192596 -81.73828125 75.05078125 C-80.20373291 74.16120728 -80.20373291 74.16120728 -78.63818359 73.25366211 C-77.54070801 72.61307861 -76.44323242 71.97249512 -75.3125 71.3125 C-74.15205754 70.63840526 -72.99140926 69.96466475 -71.83056641 69.29125977 C-69.41865875 67.89179069 -67.00764414 66.49080029 -64.59716797 65.08886719 C-60.10394997 62.47742683 -55.5998394 59.88496801 -51.09594727 57.29199219 C-37.70047423 49.57941634 -24.34292259 41.80308085 -11 34 C-15.13907441 30.44055929 -19.55271739 27.86171271 -24.3125 25.25 C-25.05306641 24.83878906 -25.79363281 24.42757812 -26.55664062 24.00390625 C-28.36879627 22.99845215 -30.1840842 21.998647 -32 21 C-32 20.34 -32 19.68 -32 19 C-31.24380371 18.56655273 -30.48760742 18.13310547 -29.70849609 17.68652344 C-26.87843377 16.06302302 -24.04946379 14.43765031 -21.22119141 12.81103516 C-20.00156583 12.11009721 -18.78152116 11.4098879 -17.56103516 10.71044922 C-15.79736927 9.69954997 -14.03527403 8.68595841 -12.2734375 7.671875 C-10.68668213 6.76066895 -10.68668213 6.76066895 -9.06787109 5.83105469 C-5.96757798 3.98064896 -2.98627722 2.02738087 0 0 Z " fill="#41A798" transform="translate(233,132)"/>
<path d="M0 0 C3.77240079 32.35075497 3.77240079 32.35075497 -1.96875 40.94824219 C-7.39436708 45.66425889 -13.90010181 48.11811443 -20.56933594 50.61035156 C-26.27567372 52.92180009 -31.38442506 56.17180031 -36.625 59.375 C-38.63898757 60.55710578 -40.65581312 61.73439302 -42.67578125 62.90625 C-43.60342285 63.44636719 -44.53106445 63.98648438 -45.48681641 64.54296875 C-48.58500312 66.3391586 -51.6964944 68.10990863 -54.8125 69.875 C-61.55046426 73.70655197 -68.21036484 77.66765585 -74.875 81.625 C-84.09617095 87.09690718 -93.31776839 92.56796397 -102.5625 98 C-103.58520996 98.60537598 -104.60791992 99.21075195 -105.66162109 99.83447266 C-106.5995752 100.38409668 -107.5375293 100.9337207 -108.50390625 101.5 C-109.32705322 101.9846875 -110.1502002 102.469375 -110.99829102 102.96875 C-113 104 -113 104 -115 104 C-115.32311734 98.73529043 -115.55794105 93.47641016 -115.71411133 88.20410156 C-115.77921984 86.41466763 -115.86775157 84.62591857 -115.98071289 82.83886719 C-116.71150456 70.97424952 -116.71150456 70.97424952 -115 66 C-111.1180773 61.90941658 -107.21657075 60.15625185 -102 58 C-99.88076004 56.81830257 -97.77434359 55.61301076 -95.6875 54.375 C-94.50960326 53.70616989 -93.33129839 53.03805732 -92.15234375 52.37109375 C-86.9928355 49.43690384 -81.87376302 46.43351478 -76.75 43.4375 C-68.24778963 38.46718268 -59.72535751 33.53379924 -51.1875 28.625 C-40.76095115 22.62762321 -30.39898792 16.52757271 -20.0690918 10.36572266 C-2.66578481 0 -2.66578481 0 0 0 Z " fill="#40A798" transform="translate(140,80)"/>
<path d="M0 0 C0.32311734 5.26470957 0.55794105 10.52358984 0.71411133 15.79589844 C0.77921984 17.58533237 0.86775157 19.37408143 0.98071289 21.16113281 C1.71174667 33.02968115 1.71174667 33.02968115 0 38 C-3.88346353 42.0885858 -7.78074244 43.8497301 -13 46 C-15.05650764 47.14030269 -17.10045906 48.30386127 -19.125 49.5 C-19.74439453 49.850625 -20.36378906 50.20125 -21.00195312 50.5625 C-27.26620248 54.11248783 -33.43879719 57.81634343 -39.625 61.5 C-50.24564979 67.82013982 -60.93872736 74.00142133 -71.6809082 80.11230469 C-81.5122057 85.70803861 -91.28874001 91.39387809 -101.05078125 97.109375 C-101.90236816 97.60630859 -102.75395508 98.10324219 -103.63134766 98.61523438 C-105.13925944 99.49679236 -106.64446275 100.38301176 -108.14599609 101.27539062 C-112.78045644 104 -112.78045644 104 -115 104 C-118.48503032 71.2382779 -118.48503032 71.2382779 -113.01806641 63.02099609 C-107.99571062 58.59771691 -102.20305838 56.23297991 -95.9309082 54.07836914 C-90.99499643 52.26229898 -86.53782749 49.63481383 -82 47 C-81.17314697 46.51998535 -80.34629395 46.0399707 -79.49438477 45.54541016 C-76.96820081 44.06294891 -74.45198438 42.56471171 -71.9375 41.0625 C-63.70101012 36.16848768 -55.42906798 31.34092244 -47.125 26.5625 C-38.36393488 21.51888481 -29.61054002 16.46272466 -20.875 11.375 C-19.89805176 10.80724854 -18.92110352 10.23949707 -17.91455078 9.65454102 C-13.06129341 6.82467433 -8.26434373 3.94654714 -3.56298828 0.86962891 C-2 0 -2 0 0 0 Z " fill="#40A798" transform="translate(257,81)"/>
<path d="M0 0 C0.51119385 0.35263916 1.0223877 0.70527832 1.54907227 1.06860352 C7.84000361 5.34220154 14.33411556 9.16971006 20.9375 12.9375 C22.66312721 13.92782785 24.38875192 14.91816007 26.11422729 15.90875244 C27.89507364 16.93057516 29.67668273 17.95105601 31.45849609 18.97119141 C34.87689581 20.92876056 38.29249438 22.89116785 41.70703125 24.85546875 C42.79266357 25.47752197 43.8782959 26.0995752 44.99682617 26.74047852 C47.16559358 27.9968174 49.32347223 29.27214366 51.4699707 30.56616211 C56.72539902 33.70945696 61.75400347 36.38394125 67.5234375 38.4609375 C79.48985455 43.18816826 79.48985455 43.18816826 83 49 C86.28750882 61.34728006 84.29702713 75.46600146 83 88 C79.36739655 86.63527177 76.09038593 85.0019884 72.73828125 83.05078125 C71.71541016 82.4578125 70.69253906 81.86484375 69.63867188 81.25390625 C68.54103516 80.61324219 67.44339844 79.97257812 66.3125 79.3125 C65.15059652 78.6376662 63.98848329 77.96319344 62.82617188 77.2890625 C60.4127596 75.88892911 58.0002554 74.48724981 55.58837891 73.08447266 C50.06732929 69.87508732 44.53298399 66.68874937 39 63.5 C36.83327091 62.2501082 34.66660444 61.00010785 32.5 59.75 C31.4275 59.13125 30.355 58.5125 29.25 57.875 C26 56 22.75 54.125 19.5 52.25 C18.4260498 51.63044434 17.35209961 51.01088867 16.24560547 50.37255859 C14.0934787 49.13088473 11.94145927 47.88902478 9.78955078 46.64697266 C4.74969023 43.73833177 -0.29117492 40.83148102 -5.33599854 37.93145752 C-7.11749578 36.90724335 -8.89864322 35.88242349 -10.6796875 34.85742188 C-12.91076625 33.57366625 -15.14249573 32.29104061 -17.375 31.00976562 C-22.98865365 27.77798665 -28.53291438 24.47428702 -34 21 C-30.33950007 17.91749626 -26.58790363 15.49329323 -22.421875 13.14453125 C-21.80983215 12.79742599 -21.19778931 12.45032074 -20.56719971 12.09269714 C-18.63044777 10.99514355 -16.69044104 9.90351587 -14.75 8.8125 C-12.79584521 7.70980523 -10.84241086 6.60586557 -8.88995361 5.50016785 C-7.12957025 4.5038347 -5.36708156 3.51122415 -3.60449219 2.51879883 C-1.15170804 1.23658423 -1.15170804 1.23658423 0 0 Z " fill="#79C1B6" transform="translate(59,164)"/>
<path d="M0 0 C3.63260345 1.36472823 6.90961407 2.9980116 10.26171875 4.94921875 C11.28475098 5.54226807 12.3077832 6.13531738 13.36181641 6.74633789 C14.45929199 7.38692139 15.55676758 8.02750488 16.6875 8.6875 C17.84794246 9.36159474 19.00859074 10.03533525 20.16943359 10.70874023 C22.58134125 12.10820931 24.99235586 13.50919971 27.40283203 14.91113281 C31.89378096 17.5212544 36.39561671 20.11240464 40.8972168 22.70410156 C51.21576533 28.6450131 61.50908227 34.62743105 71.78564453 40.640625 C77.32308775 43.8743821 82.875245 47.08068824 88.4453125 50.2578125 C89.07500946 50.61700272 89.70470642 50.97619293 90.35348511 51.3462677 C93.42127119 53.09514069 96.49064083 54.84117102 99.56201172 56.58374023 C105.4574776 59.93741007 111.28300043 63.34980788 117 67 C113.48094911 69.9417256 109.9025972 72.34918369 105.9296875 74.63671875 C104.78628906 75.29607422 103.64289063 75.95542969 102.46484375 76.63476562 C101.87558105 76.97161377 101.28631836 77.30846191 100.67919922 77.65551758 C98.87028244 78.69019839 97.06578703 79.73228354 95.26171875 80.77539062 C86.40189549 85.86603484 86.40189549 85.86603484 83 87 C80.63427734 85.98706055 80.63427734 85.98706055 77.8359375 84.38671875 C76.8054126 83.80349854 75.7748877 83.22027832 74.71313477 82.61938477 C73.61155029 81.98186279 72.50996582 81.34434082 71.375 80.6875 C69.67138306 79.71671509 69.67138306 79.71671509 67.93334961 78.72631836 C60.44296736 74.44632742 52.9926403 70.0986654 45.57421875 65.6953125 C38.65552223 61.59989816 31.67204311 57.61478258 24.69750977 53.61547852 C22.58512463 52.40101705 20.4844596 51.16596077 18.39550781 49.91162109 C15.88933086 48.50068023 13.53459757 47.3406795 10.90917969 46.21728516 C1.10070729 41.73333593 1.10070729 41.73333593 -0.80914307 36.99069214 C-2.06568494 31.19801684 -1.75347299 25.38318414 -1.5 19.5 C-1.48152693 17.71880724 -1.46974816 15.9375318 -1.46484375 14.15625 C-1.35380305 1.35380305 -1.35380305 1.35380305 0 0 Z " fill="#79C1B6" transform="translate(140,13)"/>
<path d="M0 0 C3.65843738 0.52136393 6.50401716 2.27968548 9.671875 4.10546875 C10.79867676 4.75201416 11.92547852 5.39855957 13.08642578 6.06469727 C14.30769988 6.77215545 15.52888914 7.4797601 16.75 8.1875 C18.01656088 8.91693865 19.2833279 9.64601948 20.55029297 10.37475586 C30.36458188 16.02658694 40.14603586 21.73511951 49.921875 27.453125 C56.726208 31.42944931 63.54904757 35.37344976 70.375 39.3125 C72.07100342 40.29198608 72.07100342 40.29198608 73.80126953 41.29125977 C74.84395996 41.89252686 75.88665039 42.49379395 76.9609375 43.11328125 C77.88696777 43.64735596 78.81299805 44.18143066 79.76708984 44.73168945 C81.1590113 45.5223118 82.56820979 46.28410489 84 47 C84 47.66 84 48.32 84 49 C80.59497856 51.04096165 77.17432888 53.05412887 73.75 55.0625 C72.29787109 55.93358398 72.29787109 55.93358398 70.81640625 56.82226562 C69.88183594 57.36689453 68.94726562 57.91152344 67.984375 58.47265625 C67.12553711 58.98062744 66.26669922 59.48859863 65.38183594 60.01196289 C62.58423631 61.17246778 61.75991057 61.14030433 59 60 C57.22186917 59.11067193 55.47016314 58.16774574 53.73828125 57.19140625 C52.71001221 56.61406738 51.68174316 56.03672852 50.62231445 55.44189453 C49.53007568 54.82169434 48.43783691 54.20149414 47.3125 53.5625 C46.18996826 52.92940918 45.06743652 52.29631836 43.91088867 51.64404297 C37.51263539 48.02518981 31.14234176 44.36216491 24.8125 40.625 C24.14492676 40.23151367 23.47735352 39.83802734 22.78955078 39.43261719 C19.51287681 37.49732401 16.24772925 35.54484531 12.9921875 33.57421875 C11.72417929 32.81994092 10.45596013 32.06601759 9.1875 31.3125 C8.08792969 30.64863281 6.98835938 29.98476562 5.85546875 29.30078125 C2.61977382 27.82679163 2.20515321 27.85789671 -1 29 C-2.91665838 29.98611967 -4.80437987 31.02914477 -6.671875 32.10546875 C-7.80036865 32.75306152 -8.9288623 33.4006543 -10.09155273 34.06787109 C-11.31108091 34.77433509 -12.5305623 35.48087985 -13.75 36.1875 C-15.00115771 36.90745626 -16.25254375 37.62701586 -17.50415039 38.34619141 C-23.68936976 41.9052949 -29.85589402 45.49579343 -36.01171875 49.10546875 C-37.09678711 49.74137939 -38.18185547 50.37729004 -39.29980469 51.0324707 C-41.35084133 52.23688819 -43.3997663 53.44491088 -45.44628906 54.65698242 C-46.37022461 55.2007251 -47.29416016 55.74446777 -48.24609375 56.3046875 C-49.04716553 56.77890137 -49.8482373 57.25311523 -50.67358398 57.74169922 C-55.40286075 60.29964784 -55.40286075 60.29964784 -58 61 C-60.49536133 60.12548828 -60.49536133 60.12548828 -63.08203125 58.5703125 C-64.01337891 58.02246094 -64.94472656 57.47460938 -65.90429688 56.91015625 C-66.86400391 56.32105469 -67.82371094 55.73195312 -68.8125 55.125 C-69.79154297 54.54363281 -70.77058594 53.96226563 -71.77929688 53.36328125 C-74.19639811 51.92481125 -76.60211912 50.47021041 -79 49 C-79 48.01 -79 47.02 -79 46 C-78.16698364 45.5349707 -78.16698364 45.5349707 -77.31713867 45.06054688 C-64.59228141 37.94384641 -51.98374657 30.65763432 -39.4621582 23.18920898 C-29.60227727 17.32250556 -19.65358108 11.61889793 -9.67114258 5.96362305 C-7.98927856 5.00903198 -7.98927856 5.00903198 -6.2734375 4.03515625 C-5.27747559 3.4719165 -4.28151367 2.90867676 -3.25537109 2.32836914 C-1.10538068 1.18885619 -1.10538068 1.18885619 0 0 Z " fill="#FCFEFD" transform="translate(139,52)"/>
<path d="M0 0 C1.55012728 0.76969328 3.07457972 1.59208752 4.578125 2.44921875 C5.48030762 2.96097656 6.38249023 3.47273437 7.31201172 4 C8.28154785 4.556875 9.25108398 5.11375 10.25 5.6875 C11.25691895 6.26113281 12.26383789 6.83476562 13.30126953 7.42578125 C21.84748934 12.30707138 30.35316465 17.25862629 38.84082031 22.2409668 C40.68915637 23.32520315 42.5399528 24.4052596 44.39355469 25.48046875 C46.12218351 26.48824187 47.84182454 27.51160251 49.55175781 28.55078125 C50.34163086 29.01871094 51.13150391 29.48664063 51.9453125 29.96875 C52.97809326 30.59426758 52.97809326 30.59426758 54.03173828 31.23242188 C56.56219521 32.21924358 57.4810136 31.98435408 60 31 C61.91665838 30.01388033 63.80437987 28.97085523 65.671875 27.89453125 C66.80036865 27.24693848 67.9288623 26.5993457 69.09155273 25.93212891 C70.31108091 25.22566491 71.5305623 24.51912015 72.75 23.8125 C74.00115771 23.09254374 75.25254375 22.37298414 76.50415039 21.65380859 C82.68936976 18.0947051 88.85589402 14.50420657 95.01171875 10.89453125 C96.09678711 10.25862061 97.18185547 9.62270996 98.29980469 8.9675293 C100.35084133 7.76311181 102.3997663 6.55508912 104.44628906 5.34301758 C105.37022461 4.7992749 106.29416016 4.25553223 107.24609375 3.6953125 C108.04716553 3.22109863 108.8482373 2.74688477 109.67358398 2.25830078 C110.44130127 1.84306152 111.20901855 1.42782227 112 1 C112.8137207 0.55978516 113.62744141 0.11957031 114.46582031 -0.33398438 C117 -1 117 -1 119.5871582 -0.03369141 C120.48265381 0.52141113 121.37814941 1.07651367 122.30078125 1.6484375 C123.76547852 2.53789062 123.76547852 2.53789062 125.25976562 3.4453125 C126.26716797 4.08210937 127.27457031 4.71890625 128.3125 5.375 C129.33923828 6.0040625 130.36597656 6.633125 131.42382812 7.28125 C133.95972315 8.83817159 136.48394856 10.41128148 139 12 C136.5849251 14.67813752 133.98947088 16.3043511 130.86328125 18.08203125 C129.82349121 18.67701416 128.78370117 19.27199707 127.71240234 19.88500977 C126.59043457 20.52108154 125.4684668 21.15715332 124.3125 21.8125 C122.53876625 22.8254655 120.76605798 23.84021083 118.99334717 24.85496521 C117.78081764 25.54885426 116.56796428 26.24217772 115.35479736 26.93495178 C109.50727896 30.27505327 103.68856383 33.66367461 97.875 37.0625 C96.90820312 37.62654541 95.94140625 38.19059082 94.9453125 38.77172852 C89.73774361 41.81077374 84.53625366 44.85988114 79.33984375 47.91796875 C77.70136475 48.87981079 77.70136475 48.87981079 76.02978516 49.86108398 C73.93531296 51.09077979 71.8424515 52.32322454 69.75146484 53.55883789 C68.80867676 54.11176514 67.86588867 54.66469238 66.89453125 55.234375 C66.06800049 55.72131836 65.24146973 56.20826172 64.38989258 56.70996094 C59.59078939 59.30046673 59.59078939 59.30046673 57 60 C54.51831055 59.1640625 54.51831055 59.1640625 51.88671875 57.625 C50.89873291 57.05918213 49.91074707 56.49336426 48.89282227 55.91040039 C47.83506592 55.27996826 46.77730957 54.64953613 45.6875 54 C44.57882568 53.35861084 43.47015137 52.71722168 42.32788086 52.05639648 C40.01186967 50.71333649 37.70064378 49.3647878 35.39550781 48.00341797 C32.24789071 46.14626051 29.09126639 44.30591486 25.9296875 42.47265625 C22.00338263 40.19324437 18.0834653 37.90339371 14.16796875 35.60546875 C9.76535471 33.02531554 5.3503723 30.46795995 0.92578125 27.92578125 C0.04023308 27.41667961 0.04023308 27.41667961 -0.86320496 26.89729309 C-3.72366667 25.25325211 -6.58541004 23.61153657 -9.44897461 21.97290039 C-14.40889029 19.12342204 -19.30272202 16.26696496 -24 13 C-22.38001014 8.14003042 -17.98327575 6.71102317 -13.6875 4.25 C-12.81931641 3.73050781 -11.95113281 3.21101562 -11.05664062 2.67578125 C-10.21681641 2.18980469 -9.37699219 1.70382813 -8.51171875 1.203125 C-7.74303467 0.75614258 -6.97435059 0.30916016 -6.18237305 -0.15136719 C-3.54262122 -1.17785531 -2.60699028 -1.02863217 0 0 Z " fill="#FCFEFD" transform="translate(84,153)"/>
<path d="M0 0 C1.62834663 1.00459312 3.25187679 2.02181701 4.80957031 3.1328125 C7.19003424 4.66637916 7.19003424 4.66637916 10.57324219 5.8671875 C14.55434107 7.50565411 18.24282032 9.15033752 21.0625 12.5 C23.4724146 18.78436772 22.69911364 25.90191547 22.4375 32.5 C22.41547046 34.34238247 22.39978349 36.18485234 22.390625 38.02734375 C22.35453478 42.52256361 22.23209649 47.00791624 22.0625 51.5 C17.92251766 50.90500425 14.96915737 49.52258169 11.36328125 47.4296875 C10.24816162 46.78733154 9.13304199 46.14497559 7.98413086 45.4831543 C6.78095542 44.78066193 5.57791486 44.07793848 4.375 43.375 C3.13519585 42.65670548 1.89503789 41.93902135 0.65454102 41.22192383 C-1.91607436 39.73493181 -4.48448802 38.24422443 -7.05175781 36.75146484 C-10.84351644 34.55000168 -14.65060169 32.37613278 -18.4609375 30.20703125 C-19.65676659 29.52444344 -20.85248804 28.841667 -22.0480957 28.15869141 C-24.31325405 26.8651849 -26.57997002 25.57440145 -28.84838867 24.28662109 C-29.86908447 23.70090332 -30.88978027 23.11518555 -31.94140625 22.51171875 C-32.83674072 22.00084717 -33.7320752 21.48997559 -34.65454102 20.96362305 C-36.72710738 19.63488437 -38.29201996 18.31729995 -39.9375 16.5 C-39.39971924 16.20867187 -38.86193848 15.91734375 -38.30786133 15.6171875 C-36.69966355 14.74420016 -35.09276168 13.86882337 -33.48681641 12.99169922 C-31.65276927 11.99205355 -29.8151453 10.99894419 -27.97412109 10.01220703 C-23.87173517 7.78812626 -19.90521471 5.59944843 -16.20703125 2.7421875 C-10.08597734 -1.86571147 -7.16234176 -3.47409268 0 0 Z " fill="#79C1B6" transform="translate(120.9375,134.5)"/>
<path d="M0 0 C1.35931641 0.77923828 1.35931641 0.77923828 2.74609375 1.57421875 C9.47339291 5.42684075 16.20778253 9.26248351 23 13 C23 13.66 23 14.32 23 15 C19.42548451 17.0631792 15.85085438 19.12615964 12.27612305 21.18896484 C11.06287623 21.88910701 9.84965944 22.58930122 8.63647461 23.28955078 C8.04938721 23.62841309 7.4622998 23.96727539 6.85742188 24.31640625 C6.278517 24.65154236 5.69961212 24.98667847 5.10316467 25.33197021 C3.39816753 26.31255423 1.68338538 27.27606079 -0.03149414 28.23925781 C-2.91688345 29.85556059 -2.91688345 29.85556059 -4.98217773 31.59667969 C-6.59375 32.875 -6.59375 32.875 -10 34 C-14.34611986 32.51053491 -18.06296472 30.18872053 -21.9375 27.75 C-23.00291016 27.11191406 -24.06832031 26.47382812 -25.16601562 25.81640625 C-27.79467151 24.23685518 -30.40341132 22.63154382 -33 21 C-30.17355242 17.95017321 -27.42528701 15.90931541 -23.7890625 13.90625 C-22.79132812 13.35066406 -21.79359375 12.79507813 -20.765625 12.22265625 C-19.72921875 11.65417969 -18.6928125 11.08570312 -17.625 10.5 C-8.62127131 5.56177254 -8.62127131 5.56177254 0 0 Z " fill="#79C1B6" transform="translate(58,99)"/>
<path d="M0 0 C5.88993671 2.76547818 11.56074454 5.82089165 17.125 9.1875 C18.24132812 9.86167969 19.35765625 10.53585938 20.5078125 11.23046875 C21.33023438 11.81441406 22.15265625 12.39835938 23 13 C23 13.66 23 14.32 23 15 C20.93969727 16.43286133 20.93969727 16.43286133 18.06640625 18.08203125 C17.02419922 18.68466797 15.98199219 19.28730469 14.90820312 19.90820312 C13.25208008 20.85083008 13.25208008 20.85083008 11.5625 21.8125 C10.49322266 22.42931641 9.42394531 23.04613281 8.32226562 23.68164062 C6.20694857 24.89907998 4.08201688 26.09997601 1.94750977 27.28344727 C-0.97260177 28.91011507 -0.97260177 28.91011507 -3.38696289 30.77709961 C-5.65903316 32.39694726 -7.26538646 33.4205314 -10 34 C-14.34991864 32.73421182 -17.82147222 30.44554841 -21.5625 27.9375 C-23.07553711 26.99874023 -23.07553711 26.99874023 -24.61914062 26.04101562 C-29.78065285 22.77357221 -29.78065285 22.77357221 -32 21 C-32 20.34 -32 19.68 -32 19 C-31.24380371 18.56655273 -30.48760742 18.13310547 -29.70849609 17.68652344 C-26.87843377 16.06302302 -24.04946379 14.43765031 -21.22119141 12.81103516 C-20.00156583 12.11009721 -18.78152116 11.4098879 -17.56103516 10.71044922 C-15.79736927 9.69954997 -14.03527403 8.68595841 -12.2734375 7.671875 C-11.21560059 7.0644043 -10.15776367 6.45693359 -9.06787109 5.83105469 C-5.96757798 3.98064896 -2.98627722 2.02738087 0 0 Z " fill="#79C1B6" transform="translate(233,132)"/>
<path d="M0 0 C2.5871582 1.27514648 2.5871582 1.27514648 5.30078125 2.87109375 C6.76547852 3.73250977 6.76547852 3.73250977 8.25976562 4.61132812 C9.77086914 5.5152832 9.77086914 5.5152832 11.3125 6.4375 C12.33923828 7.03626953 13.36597656 7.63503906 14.42382812 8.25195312 C15.39384766 8.82751953 16.36386719 9.40308594 17.36328125 9.99609375 C18.25313721 10.52388428 19.14299316 11.0516748 20.05981445 11.59545898 C20.70007568 12.05895752 21.34033691 12.52245605 22 13 C22 13.66 22 14.32 22 15 C18.64343215 17.5052891 14.97270911 19.54838292 11.375 21.6875 C10.37597656 22.30689453 9.37695312 22.92628906 8.34765625 23.56445312 C7.37441406 24.14517578 6.40117187 24.72589844 5.3984375 25.32421875 C4.50817871 25.86135498 3.61791992 26.39849121 2.70068359 26.9519043 C-0.72487852 28.28131473 -2.48450454 27.99279141 -6 27 C-8.79248047 25.69311523 -8.79248047 25.69311523 -11.6171875 24.05859375 C-13.14472656 23.18364258 -13.14472656 23.18364258 -14.703125 22.29101562 C-15.74984375 21.67935547 -16.7965625 21.06769531 -17.875 20.4375 C-18.94492188 19.82197266 -20.01484375 19.20644531 -21.1171875 18.57226562 C-23.74961393 17.05627005 -26.37687243 15.53201069 -29 14 C-25.24586122 9.90374651 -20.38972142 7.50581185 -15.625 4.75 C-14.67882812 4.1828125 -13.73265625 3.615625 -12.7578125 3.03125 C-11.84 2.50015625 -10.9221875 1.9690625 -9.9765625 1.421875 C-9.14205566 0.93299805 -8.30754883 0.44412109 -7.44775391 -0.05957031 C-4.4101276 -1.22662961 -3.07069679 -1.01226205 0 0 Z " fill="#FBFDFD" transform="translate(144,119)"/>
<path d="M0 0 C2.81172702 1.19647958 4.34877619 2.092371 6.12109375 4.5625 C7.45634231 8.26558934 7.20842944 11.85022731 7.125 15.75 C7.08375 18.4725 7.0425 21.195 7 24 C1.06 24 -4.88 24 -11 24 C-10.896875 26.248125 -10.79375 28.49625 -10.6875 30.8125 C-10.62949219 32.07707031 -10.57148437 33.34164062 -10.51171875 34.64453125 C-10.25367653 37.91084508 -10.25367653 37.91084508 -8.71875 39.9375 C-6.58301707 41.25777127 -5.30452957 41.31005883 -2.8125 41.1875 C-1.554375 41.125625 -0.29625 41.06375 1 41 C1.33 38.36 1.66 35.72 2 33 C3.65 33 5.3 33 7 33 C6.91253716 34.43861294 6.80434652 35.87597508 6.6875 37.3125 C6.62949219 38.11300781 6.57148437 38.91351563 6.51171875 39.73828125 C5.90500435 42.41986625 5.15637846 43.3353373 3 45 C0.22947819 45.92350727 -1.56688758 46.16329585 -4.4375 46.1875 C-5.58025391 46.20876953 -5.58025391 46.20876953 -6.74609375 46.23046875 C-9.302832 45.96903451 -10.83886845 45.3811053 -13 44 C-15.49067291 40.26399064 -15.32324941 37.30202267 -15.3359375 32.97265625 C-15.3425943 32.18733017 -15.3492511 31.40200409 -15.35610962 30.59288025 C-15.36622915 28.93279359 -15.37092685 27.2726663 -15.37060547 25.61254883 C-15.37497846 23.07500096 -15.41130172 20.5391932 -15.44921875 18.00195312 C-15.45508717 16.38802678 -15.4590564 14.77409217 -15.4609375 13.16015625 C-15.47530853 12.4027565 -15.48967957 11.64535675 -15.50448608 10.86500549 C-15.47382567 7.32342683 -15.30218843 5.38848923 -13.09619141 2.55249023 C-8.87107038 -0.57673695 -5.12846695 -0.49687569 0 0 Z " fill="#40A798" transform="translate(97,296)"/>
<path d="M0 0 C1.98 0 3.96 0 6 0 C8.25374117 5.76323254 10.07763927 11.52746533 11.6875 17.5 C11.91244141 18.32242187 12.13738281 19.14484375 12.36914062 19.9921875 C12.91611425 21.99387823 13.45853969 23.99681088 14 26 C15.62416738 22.99682259 16.62660154 20.09183771 17.5078125 16.796875 C17.77207031 15.8171875 18.03632812 14.8375 18.30859375 13.828125 C18.57800781 12.81234375 18.84742187 11.7965625 19.125 10.75 C19.40214844 9.71875 19.67929687 8.6875 19.96484375 7.625 C20.64706002 5.0843325 21.32529719 2.54267116 22 0 C24.31 0 26.62 0 29 0 C29 14.52 29 29.04 29 44 C27.35 44 25.7 44 24 44 C23.67 34.43 23.34 24.86 23 15 C21.02 21.93 19.04 28.86 17 36 C15.35 36 13.7 36 12 36 C9.69 28.08 7.38 20.16 5 12 C4.67 22.56 4.34 33.12 4 44 C2.68 44 1.36 44 0 44 C0 29.48 0 14.96 0 0 Z " fill="#40A798" transform="translate(32,297)"/>
<path d="M0 0 C4.6 2.2 4.6 2.2 6 5 C6.08705146 7.98970289 6.11550145 10.95584955 6.09765625 13.9453125 C6.0962413 14.8303244 6.09482635 15.7153363 6.09336853 16.62716675 C6.0877614 19.45981191 6.07520771 22.29237864 6.0625 25.125 C6.05748592 27.04296761 6.05292285 28.96093646 6.04882812 30.87890625 C6.03778966 35.58596782 6.02052025 40.2929706 6 45 C4.35 45 2.7 45 1 45 C0.97494385 43.82381104 0.9498877 42.64762207 0.92407227 41.43579102 C0.83017194 37.08785378 0.72990952 32.74008284 0.62768555 28.39233398 C0.58427067 26.50760782 0.54260057 24.62284064 0.50268555 22.73803711 C0.44514107 20.03486751 0.38140196 17.33190564 0.31640625 14.62890625 C0.29969376 13.78099014 0.28298126 12.93307404 0.26576233 12.0594635 C0.53590805 8.21707924 0.53590805 8.21707924 -1 5 C-5.76071359 5.1711188 -5.76071359 5.1711188 -9.69458008 7.54785156 C-11.5224317 10.98135477 -11.47911824 14.24630826 -11.51171875 18.046875 C-11.52966995 18.81807678 -11.54762115 19.58927856 -11.56611633 20.3838501 C-11.62015769 22.83917832 -11.6540942 25.29431286 -11.6875 27.75 C-11.72067864 29.41799566 -11.75516882 31.08596579 -11.79101562 32.75390625 C-11.87588022 36.8357976 -11.94272026 40.91763214 -12 45 C-13.32 45 -14.64 45 -16 45 C-16 30.48 -16 15.96 -16 1 C-15.34 1 -14.68 1 -14 1 C-13.34 1.99 -12.68 2.98 -12 4 C-11.319375 3.34 -10.63875 2.68 -9.9375 2 C-6.26383061 -0.50122172 -4.36916255 -0.54614532 0 0 Z " fill="#40A798" transform="translate(237,296)"/>
<path d="M0 0 C3 0.5 3 0.5 5.375 1.9375 C7.76173366 5.70119538 7.33387931 9.15956893 7 13.5 C5.68 13.5 4.36 13.5 3 13.5 C2.67 11.19 2.34 8.88 2 6.5 C0.16299211 5.72757731 0.16299211 5.72757731 -2 5.5 C-4.77639324 7.45375821 -5.39833408 9.25308453 -6 12.5 C-6.1498782 15.04276118 -6.25575347 17.5646265 -6.31640625 20.109375 C-6.33718735 20.83618469 -6.35796844 21.56299438 -6.37937927 22.31182861 C-6.44455512 24.62445991 -6.5036104 26.93720093 -6.5625 29.25 C-6.60571566 30.82162575 -6.64933092 32.39324056 -6.69335938 33.96484375 C-6.80020356 37.80978453 -6.90156024 41.65483524 -7 45.5 C-8.32 45.5 -9.64 45.5 -11 45.5 C-11 30.98 -11 16.46 -11 1.5 C-10.34 1.5 -9.68 1.5 -9 1.5 C-8.34 2.49 -7.68 3.48 -7 4.5 C-6.46375 3.84 -5.9275 3.18 -5.375 2.5 C-3 0.5 -3 0.5 0 0 Z " fill="#40A798" transform="translate(137,295.5)"/>
<path d="M0 0 C1.32 0 2.64 0 4 0 C4 13.2 4 26.4 4 40 C8.29 40 12.58 40 17 40 C17 41.32 17 42.64 17 44 C11.39 44 5.78 44 0 44 C0 29.48 0 14.96 0 0 Z " fill="#40A798" transform="translate(161,297)"/>
<path d="M0 0 C2.9375 0.4375 2.9375 0.4375 4.609375 1.546875 C7.44642251 5.58549557 6.0759265 11.77714132 5.9375 16.4375 C1.6475 16.4375 -2.6425 16.4375 -7.0625 16.4375 C-7.55641856 5.07737308 -7.55641856 5.07737308 -5.23828125 2.07421875 C-3.0625 0.4375 -3.0625 0.4375 0 0 Z " fill="#FFFFFF" transform="translate(93.0625,299.5625)"/>
<path d="M0 0 C1.32 0 2.64 0 4 0 C4 14.52 4 29.04 4 44 C2.68 44 1.36 44 0 44 C0 29.48 0 14.96 0 0 Z " fill="#40A798" transform="translate(194,297)"/>
</svg>
