<?xml version="1.0" encoding="UTF-8"?>
<svg version="1.1" xmlns="http://www.w3.org/2000/svg" width="284" height="358">
<path d="M0 0 C4.13989089 0.46085319 7.12497105 1.99577582 10.69921875 4.0703125 C11.81248535 4.71170166 12.92575195 5.35309082 14.07275391 6.01391602 C15.27773761 6.71749364 16.48265113 7.4211915 17.6875 8.125 C18.94411816 8.85213915 20.20112306 9.57861033 21.45849609 10.30444336 C24.04627864 11.7996765 26.63175689 13.2987785 29.21533203 14.80126953 C33.78168906 17.456189 38.35964117 20.09086916 42.93725586 22.72631836 C46.14721667 24.57529709 49.35515214 26.42774285 52.5625 28.28125 C56.89408507 30.7842949 61.22744603 33.28421773 65.5625 35.78125 C76.38871983 42.01818139 87.20570133 48.27045166 98 54.5625 C99.44076904 55.40180054 99.44076904 55.40180054 100.91064453 56.25805664 C102.72758809 57.31860599 104.5397537 58.38739441 106.34643555 59.46533203 C108.16149671 60.51505827 110.00971063 61.5089181 111.88208008 62.45263672 C114.4783208 63.81511815 116.7638891 65.10303548 119 67 C119.89848054 70.33027535 120.05496518 71.74613757 119.6875 75 C119.56781239 76.59616867 119.45074643 78.19253551 119.3359375 79.7890625 C119.26342773 80.63114258 119.19091797 81.47322266 119.11621094 82.34082031 C118.99269449 85.16716732 119.2004424 87.83432151 119.4765625 90.6484375 C120.2981636 101.87380131 120.2981636 101.87380131 118 107 C112.27458221 112.81292997 104.49408562 116.05059738 97 119 C104.24100105 123.51023713 111.48219116 127.95942057 119 132 C119.04597911 136.47019158 119.05951113 140.93601702 119.015625 145.40625 C118.9811472 149.166982 119.07068913 152.89926958 119.234375 156.65625 C119.58860928 170.04208303 119.58860928 170.04208303 115.8828125 174.609375 C113.09702042 176.33848732 110.30162064 177.68645576 107.28222656 178.95605469 C102.58814854 181.10323886 98.23789405 183.91702046 93.8125 186.5625 C91.71681264 187.78593097 89.6191067 189.00590987 87.51953125 190.22265625 C86.44783691 190.84414551 85.37614258 191.46563477 84.27197266 192.10595703 C77.75908295 195.87606584 71.23907341 199.6338156 64.71850586 203.390625 C54.47700741 209.29398146 44.26586563 215.24859541 34.06005859 221.21337891 C30.79822906 223.11780435 27.53411827 225.01827439 24.26953125 226.91796875 C22.61751709 227.87981079 22.61751709 227.87981079 20.93212891 228.86108398 C18.81371357 230.09435557 16.69491546 231.32696994 14.57568359 232.55883789 C13.6264502 233.11176514 12.6772168 233.66469238 11.69921875 234.234375 C10.86221436 234.72131836 10.02520996 235.20826172 9.1628418 235.70996094 C7.41024043 236.75530981 5.69794655 237.86803563 4 239 C-0.1371371 238.67505992 -3.15004993 236.98966809 -6.69921875 234.9296875 C-8.36911865 233.96760376 -8.36911865 233.96760376 -10.07275391 232.98608398 C-11.27773761 232.28250636 -12.48265113 231.5788085 -13.6875 230.875 C-14.94411816 230.14786085 -16.20112306 229.42138967 -17.45849609 228.69555664 C-20.04627864 227.2003235 -22.63175689 225.7012215 -25.21533203 224.19873047 C-29.78153198 221.54390233 -34.3593331 218.90932376 -38.93676758 216.27392578 C-43.22090654 213.80625649 -47.50148784 211.33244827 -51.78222656 208.85888672 C-56.10376997 206.36235929 -60.42680994 203.86843046 -64.75 201.37475586 C-66.90379716 200.13234237 -69.05744484 198.88966972 -71.2109375 197.64672852 C-76.25061523 194.73813417 -81.29133238 191.8313905 -86.33599854 188.93145752 C-88.11749578 187.90724335 -89.89864322 186.88242349 -91.6796875 185.85742188 C-93.91076625 184.57366625 -96.14249573 183.29104061 -98.375 182.00976562 C-100.36348562 180.86499496 -102.34670894 179.71101428 -104.32348633 178.54614258 C-106.02158962 177.56519866 -107.74410364 176.62448943 -109.49487305 175.7409668 C-111.58565106 174.63085389 -113.30004878 173.64671684 -115 172 C-115.69846451 168.87529034 -115.83530685 167.13759242 -115.5625 164.0625 C-115.4615193 162.45715718 -115.36265894 160.85167996 -115.265625 159.24609375 C-115.20568359 158.39772949 -115.14574219 157.54936523 -115.08398438 156.67529297 C-114.99527097 153.84935843 -115.20931222 151.16031746 -115.484375 148.34765625 C-116.29354392 137.11589422 -116.29354392 137.11589422 -114 132 C-108.27458221 126.18707003 -100.49408562 122.94940262 -93 120 C-100.24100105 115.48976287 -107.48219116 111.04057943 -115 107 C-115.04654486 102.8109627 -115.05888239 98.62659382 -115.015625 94.4375 C-114.97978776 90.67734629 -115.07659353 86.94420157 -115.234375 83.1875 C-115.59381981 69.05919086 -115.59381981 69.05919086 -111.953125 64.35546875 C-109.18063197 62.63577375 -106.39784696 61.32311293 -103.38574219 60.07958984 C-98.27155167 57.76532966 -93.51796666 54.72205154 -88.6875 51.875 C-86.40388084 50.558528 -84.11870548 49.244752 -81.83203125 47.93359375 C-75.49909975 44.29191226 -69.18315796 40.62189704 -62.875 36.9375 C-61.89217041 36.36362549 -60.90934082 35.78975098 -59.89672852 35.19848633 C-56.93084772 33.46617828 -53.96535159 31.73321375 -51 30 C-47.04214526 27.68667962 -43.08386776 25.37408636 -39.125 23.0625 C-38.15667236 22.49692383 -37.18834473 21.93134766 -36.19067383 21.34863281 C-30.71841361 18.15629346 -25.23729047 14.9799275 -19.74609375 11.8203125 C-19.14414185 11.47381149 -18.54218994 11.12731049 -17.92199707 10.77030945 C-14.98658919 9.08096288 -12.05002728 7.3937002 -9.11181641 5.70922852 C-7.54246338 4.80708618 -7.54246338 4.80708618 -5.94140625 3.88671875 C-5.01013916 3.35264404 -4.07887207 2.81856934 -3.11938477 2.26831055 C-1.08882777 1.1700457 -1.08882777 1.1700457 0 0 Z M-5.57421875 43.0078125 C-6.70424316 43.65758057 -7.83426758 44.30734863 -8.99853516 44.97680664 C-10.22828246 45.69271248 -11.457935 46.4087811 -12.6875 47.125 C-13.95852248 47.8591607 -15.22984784 48.59279727 -16.50146484 49.32592773 C-20.33953891 51.54166218 -24.1703948 53.76966936 -28 56 C-29.07233887 56.62374512 -30.14467773 57.24749023 -31.24951172 57.89013672 C-36.14123522 60.737134 -41.02881717 63.59112272 -45.9140625 66.44921875 C-52.76097346 70.45061607 -59.62930169 74.41464026 -66.5 78.375 C-67.08187073 78.71040802 -67.66374146 79.04581604 -68.26324463 79.39138794 C-71.50836509 81.26173257 -74.75396704 83.13123954 -78 85 C-78 85.99 -78 86.98 -78 88 C-75.20014802 90.29769345 -71.95390503 91.95818473 -68.8125 93.75 C-67.51602539 94.52923828 -67.51602539 94.52923828 -66.19335938 95.32421875 C-64.93168945 96.05318359 -64.93168945 96.05318359 -63.64453125 96.796875 C-62.48981323 97.46734863 -62.48981323 97.46734863 -61.31176758 98.15136719 C-58.35653023 99.236213 -56.98303358 98.96534911 -54 98 C-52.04129915 97.03374458 -50.12026308 95.98944491 -48.23046875 94.89453125 C-47.10511719 94.24693848 -45.97976562 93.5993457 -44.8203125 92.93212891 C-43.60928624 92.22573808 -42.39835072 91.51919168 -41.1875 90.8125 C-39.94174758 90.09234542 -38.69564966 89.3727882 -37.44921875 88.65380859 C-33.6270118 86.44579085 -29.81282054 84.2241763 -26 82 C-24.80160862 81.30157176 -23.603204 80.60316626 -22.40478516 79.90478516 C-15.93124108 76.13063707 -15.93124108 76.13063707 -9.46557617 72.34301758 C-8.07495972 71.52740356 -8.07495972 71.52740356 -6.65625 70.6953125 C-5.44678711 69.9839917 -5.44678711 69.9839917 -4.21289062 69.25830078 C-3.48263672 68.84306152 -2.75238281 68.42782227 -2 68 C-1.36151123 67.5580127 -0.72302246 67.11602539 -0.06518555 66.66064453 C2 66 2 66 4.6628418 66.99121094 C5.66484619 67.56645508 6.66685059 68.14169922 7.69921875 68.734375 C8.81780273 69.36649902 9.93638672 69.99862305 11.08886719 70.64990234 C12.28866961 71.34949235 13.48820863 72.04953428 14.6875 72.75 C15.91625333 73.45262832 17.14575019 74.15395792 18.37597656 74.85400391 C21.92928067 76.88242397 25.46540804 78.93914964 29 81 C30.67838296 81.97135842 32.35676801 82.9427132 34.03515625 83.9140625 C35.44041769 84.73383779 36.84538632 85.55411533 38.25 86.375 C38.91233643 86.75817383 39.57467285 87.14134766 40.25708008 87.53613281 C43.60976527 89.49839414 46.82027257 91.55390167 49.9765625 93.8203125 C53.57650953 96.34107978 56.86320685 98.45930369 61 100 C65.53115667 99.14227452 68.40620493 96.77870753 72 94 C74.04374646 92.84128017 76.10614796 91.71472699 78.1875 90.625 C79.10917969 90.12226562 80.03085938 89.61953125 80.98046875 89.1015625 C81.64691406 88.73804688 82.31335938 88.37453125 83 88 C83 87.34 83 86.68 83 86 C81.99755249 85.4423999 81.99755249 85.4423999 80.97485352 84.87353516 C58.30784951 72.25374825 58.30784951 72.25374825 47.61669922 65.9074707 C39.92939736 61.348507 32.17970214 56.8982044 24.43383789 52.43969727 C23.38703857 51.83697998 22.34023926 51.2342627 21.26171875 50.61328125 C19.71750244 49.72697021 19.71750244 49.72697021 18.14208984 48.82275391 C15.96602413 47.56039908 13.80027077 46.28016246 11.64306641 44.98583984 C10.5710498 44.34469238 9.4990332 43.70354492 8.39453125 43.04296875 C6.94784058 42.16741333 6.94784058 42.16741333 5.47192383 41.27416992 C0.88453247 38.9095679 -1.39690927 40.59100998 -5.57421875 43.0078125 Z M-7.6875 109.75 C-8.49123047 110.1934375 -9.29496094 110.636875 -10.12304688 111.09375 C-14.55341213 113.55707655 -18.83020585 116.1168467 -23 119 C-18.43432173 122.52805393 -13.5293113 125.39064713 -8.5625 128.3125 C-7.62083984 128.88806641 -6.67917969 129.46363281 -5.70898438 130.05664062 C-4.79568359 130.59095703 -3.88238281 131.12527344 -2.94140625 131.67578125 C-2.11326416 132.16989502 -1.28512207 132.66400879 -0.43188477 133.1730957 C1.9993475 134.25358474 1.9993475 134.25358474 4.51855469 133.30786133 C6.92101574 132.04162915 9.30033064 130.76987459 11.64453125 129.3984375 C12.48564453 128.90859375 13.32675781 128.41875 14.19335938 127.9140625 C15.05767578 127.40617187 15.92199219 126.89828125 16.8125 126.375 C18.13797852 125.6015625 18.13797852 125.6015625 19.49023438 124.8125 C21.66194789 123.54468886 23.8317818 122.27377652 26 121 C24.71380397 117.1414119 23.40923535 116.80954893 19.90625 114.86328125 C18.36130859 113.99799805 18.36130859 113.99799805 16.78515625 113.11523438 C15.70105469 112.52033203 14.61695313 111.92542969 13.5 111.3125 C12.41589844 110.70599609 11.33179688 110.09949219 10.21484375 109.47460938 C1.50359197 104.6283623 0.8366733 104.99728944 -7.6875 109.75 Z M-66.25585938 142.82617188 C-67.18205078 143.44041016 -68.10824219 144.05464844 -69.0625 144.6875 C-70.02349609 145.28240234 -70.98449219 145.87730469 -71.97460938 146.49023438 C-74.33976051 147.96109951 -76.67730596 149.46329216 -79 151 C-79 151.66 -79 152.32 -79 153 C-78.33170166 153.3717334 -77.66340332 153.7434668 -76.97485352 154.12646484 C-54.30784951 166.74625175 -54.30784951 166.74625175 -43.61669922 173.0925293 C-35.92939736 177.651493 -28.17970214 182.1017956 -20.43383789 186.56030273 C-19.38703857 187.16302002 -18.34023926 187.7657373 -17.26171875 188.38671875 C-16.22966309 188.97630371 -15.19760742 189.56588867 -14.13427734 190.17333984 C-11.97430817 191.43217217 -9.83479359 192.72654454 -7.71337891 194.04931641 C-6.13242432 195.02457275 -6.13242432 195.02457275 -4.51953125 196.01953125 C-3.57827393 196.61483643 -2.6370166 197.2101416 -1.66723633 197.82348633 C1.5348379 199.23591614 2.72879466 199.1385235 6 198 C8.60634704 196.7544728 8.60634704 196.7544728 11.26171875 195.1484375 C12.79614624 194.25415039 12.79614624 194.25415039 14.36157227 193.34179688 C15.45912842 192.69275391 16.55668457 192.04371094 17.6875 191.375 C18.84845062 190.69523489 20.0098356 190.01621113 21.17163086 189.33789062 C23.58509866 187.92817011 25.99666529 186.51526986 28.40722656 185.10058594 C32.87240538 182.48455887 37.36339424 179.91391434 41.85327148 177.34057617 C55.68104466 169.40998796 69.36200066 161.25178559 83 153 C79.67512888 149.45742132 75.76771217 147.22722991 71.625 144.75 C70.86960938 144.27820313 70.11421875 143.80640625 69.3359375 143.3203125 C68.59859375 142.87945312 67.86125 142.43859375 67.1015625 141.984375 C66.10116943 141.37674316 66.10116943 141.37674316 65.08056641 140.75683594 C62.28937409 139.74149961 60.82122118 140.12019239 58 141 C55.39365296 142.2455272 55.39365296 142.2455272 52.73828125 143.8515625 C51.71371826 144.44880127 50.68915527 145.04604004 49.63354492 145.66137695 C47.98962769 146.63337036 47.98962769 146.63337036 46.3125 147.625 C44.57804448 148.63765812 42.84358313 149.65030642 41.10877991 150.66236877 C39.29804763 151.72003639 37.48914447 152.78077233 35.68066406 153.84228516 C30.8383917 156.68315999 25.98583466 159.5061961 21.12768555 162.31982422 C18.87186853 163.62647233 16.61804872 164.93657588 14.36645508 166.25048828 C13.34189209 166.84458496 12.3173291 167.43868164 11.26171875 168.05078125 C10.36412842 168.57325439 9.46653809 169.09572754 8.54174805 169.6340332 C3.57637448 172.30248629 3.57637448 172.30248629 1 173 C-1.3581543 172.17993164 -1.3581543 172.17993164 -3.82421875 170.66015625 C-4.75806396 170.09868896 -5.69190918 169.53722168 -6.65405273 168.95874023 C-7.65509033 168.33298096 -8.65612793 167.70722168 -9.6875 167.0625 C-11.83787686 165.76192101 -13.98894384 164.46248252 -16.140625 163.1640625 C-17.81995117 162.13974121 -17.81995117 162.13974121 -19.53320312 161.09472656 C-25.27538834 157.60773239 -31.11192423 154.28247025 -36.9375 150.9375 C-38.00766357 150.3194751 -39.07782715 149.7014502 -40.18041992 149.06469727 C-42.19583743 147.90152253 -44.21866112 146.75105649 -46.24975586 145.61547852 C-49 144 -49 144 -51.36157227 142.25756836 C-57.27533887 138.10185994 -60.22268887 139.16393154 -66.25585938 142.82617188 Z " fill="#40A596" transform="translate(139,13)"/>
<path d="M0 0 C5.11227414 0.85204569 7.16751273 1.37262625 11.359375 3.8515625 C12.37902344 4.44775391 13.39867187 5.04394531 14.44921875 5.65820312 C15.53847656 6.30724609 16.62773437 6.95628906 17.75 7.625 C18.90697352 8.30502178 20.06453713 8.98404047 21.22265625 9.66210938 C23.62665148 11.07067324 26.02805773 12.48350641 28.42773438 13.89941406 C33.92834935 17.1401701 39.4660611 20.31661535 45 23.5 C47.16422521 24.74841588 49.32828719 25.9971148 51.4921875 27.24609375 C55.85065388 29.76069436 60.21012191 32.27354661 64.5703125 34.78515625 C75.39364167 41.02127925 86.20821351 47.27191602 97 53.5625 C98.44076904 54.40180054 98.44076904 54.40180054 99.91064453 55.25805664 C101.72758809 56.31860599 103.5397537 57.38739441 105.34643555 58.46533203 C107.16149671 59.51505827 109.00971063 60.5089181 110.88208008 61.45263672 C113.4783208 62.81511815 115.7638891 64.10303548 118 66 C118.89848054 69.33027535 119.05496518 70.74613757 118.6875 74 C118.56781239 75.59616867 118.45074643 77.19253551 118.3359375 78.7890625 C118.26342773 79.63114258 118.19091797 80.47322266 118.11621094 81.34082031 C117.99269449 84.16716732 118.2004424 86.83432151 118.4765625 89.6484375 C119.2981636 100.87380131 119.2981636 100.87380131 117 106 C111.27458221 111.81292997 103.49408562 115.05059738 96 118 C105.90927842 124.15238215 105.90927842 124.15238215 116 130 C116 130.99 116 131.98 116 133 C114.47632813 133.85271484 114.47632813 133.85271484 112.921875 134.72265625 C111.5311467 135.50241995 110.14052955 136.28238192 108.75 137.0625 C108.02796387 137.46718506 107.30592773 137.87187012 106.56201172 138.28881836 C101.07629756 141.37218476 95.6521434 144.54414818 90.2578125 147.78515625 C88 149 88 149 86 149 C86 149.66 86 150.32 86 151 C78.76154736 150.56072715 74.10132685 147.30492992 68.140625 143.41796875 C67.42132813 142.96808594 66.70203125 142.51820313 65.9609375 142.0546875 C65.31946777 141.63687012 64.67799805 141.21905273 64.01708984 140.78857422 C61.25848415 139.71010697 59.80947326 140.12205621 57 141 C54.39365296 142.2455272 54.39365296 142.2455272 51.73828125 143.8515625 C50.71371826 144.44880127 49.68915527 145.04604004 48.63354492 145.66137695 C47.5376001 146.30937256 46.44165527 146.95736816 45.3125 147.625 C43.57804448 148.63765812 41.84358313 149.65030642 40.10877991 150.66236877 C38.29804763 151.72003639 36.48914447 152.78077233 34.68066406 153.84228516 C29.8383917 156.68315999 24.98583466 159.5061961 20.12768555 162.31982422 C17.87186853 163.62647233 15.61804872 164.93657588 13.36645508 166.25048828 C12.34189209 166.84458496 11.3173291 167.43868164 10.26171875 168.05078125 C9.36412842 168.57325439 8.46653809 169.09572754 7.54174805 169.6340332 C2.57637448 172.30248629 2.57637448 172.30248629 0 173 C-2.3581543 172.17993164 -2.3581543 172.17993164 -4.82421875 170.66015625 C-5.75814453 170.09868896 -6.69207031 169.53722168 -7.65429688 168.95874023 C-8.65525391 168.33298096 -9.65621094 167.70722168 -10.6875 167.0625 C-12.83652325 165.76183653 -14.98629024 164.46240128 -17.13671875 163.1640625 C-18.2561084 162.48118164 -19.37549805 161.79830078 -20.52880859 161.09472656 C-26.28846392 157.5994728 -32.1520124 154.281895 -38 150.9375 C-44.74467912 147.07267341 -51.43958206 143.17122727 -58 139 C-56.1982256 134.92710332 -54.5199747 133.97071653 -50.4375 132.125 C-44.91161705 129.5074765 -40.02544557 126.45378112 -35 123 C-30.58452982 120.05635321 -27.41642195 118.50955487 -22 119 C-19.28686523 120.22509766 -19.28686523 120.22509766 -16.55859375 121.9140625 C-15.06489258 122.80738281 -15.06489258 122.80738281 -13.54101562 123.71875 C-11.46568111 124.99346774 -9.39277177 126.272142 -7.32226562 127.5546875 C-6.32775391 128.14765625 -5.33324219 128.740625 -4.30859375 129.3515625 C-3.40939209 129.90666504 -2.51019043 130.46176758 -1.58374023 131.03369141 C0.97145192 132.27383069 0.97145192 132.27383069 3.57324219 131.31445312 C5.78758074 130.11505687 7.98365103 128.92340425 10.13671875 127.6171875 C10.87857422 127.17246094 11.62042969 126.72773438 12.38476562 126.26953125 C13.93195781 125.33255481 15.47882809 124.39504662 17.02539062 123.45703125 C17.76337891 123.01488281 18.50136719 122.57273437 19.26171875 122.1171875 C20.26658325 121.50786377 20.26658325 121.50786377 21.29174805 120.88623047 C23 120 23 120 25 120 C22.58550773 117.16320869 20.41014405 116.31314747 16.89453125 115.19921875 C10.1822361 112.59547212 4.22177291 110.05482119 0 104 C-3.57609111 92.2118182 -1.28112303 78.04345237 0 66 C3 65 3 65 5.36572266 66.01293945 C6.2891748 66.54105225 7.21262695 67.06916504 8.1640625 67.61328125 C9.19547363 68.19698486 10.22688477 68.78068848 11.28955078 69.38208008 C12.39024902 70.01911865 13.49094727 70.65615723 14.625 71.3125 C15.75276855 71.95533936 16.88053711 72.59817871 18.04248047 73.26049805 C21.36877502 75.16161025 24.68603587 77.07748913 28 79 C28.85722656 79.49628906 29.71445313 79.99257812 30.59765625 80.50390625 C32.77642332 81.7684022 34.95106558 83.0397198 37.125 84.3125 C37.79499023 84.69962158 38.46498047 85.08674316 39.15527344 85.4855957 C42.54584656 87.46481983 45.79466594 89.5334703 48.984375 91.82421875 C52.58434116 94.34517964 55.85970667 96.46620952 60 98 C64.53158386 97.10986746 67.42716731 94.82270452 71 92 C72.66869738 91.00928911 74.35531192 90.04780437 76.0625 89.125 C76.77535156 88.71507813 77.48820313 88.30515625 78.22265625 87.8828125 C80 87 80 87 82 87 C82 86.34 82 85.68 82 85 C81.15953125 84.75636719 80.3190625 84.51273437 79.453125 84.26171875 C75.59275859 82.85120025 72.24185902 80.94014535 68.75 78.8125 C67.23381085 77.90501595 65.71683112 76.99885194 64.19921875 76.09375 C63.37083496 75.59875 62.54245117 75.10375 61.68896484 74.59375 C56.67332164 71.62097727 51.61582826 68.72058653 46.5625 65.8125 C44.33853801 64.53125635 42.11457974 63.25000625 39.890625 61.96875 C38.76462891 61.32035156 37.63863281 60.67195313 36.47851562 60.00390625 C32.91680423 57.95253764 29.35667597 55.89843161 25.796875 53.84375 C25.20845322 53.50413742 24.62003143 53.16452484 24.01377869 52.81462097 C21.18890916 51.18419138 18.36409557 49.55366492 15.53930664 47.9230957 C14.52215576 47.33616943 13.50500488 46.74924316 12.45703125 46.14453125 C11.56991455 45.63253174 10.68279785 45.12053223 9.76879883 44.59301758 C6.51647652 42.72180666 3.25782491 40.86161423 0 39 C0 26.13 0 13.26 0 0 Z " fill="#41A596" transform="translate(140,14)"/>
<path d="M0 0 C0.66 0 1.32 0 2 0 C2.04597911 4.47019158 2.05951113 8.93601702 2.015625 13.40625 C1.9811472 17.166982 2.07068913 20.89926958 2.234375 24.65625 C2.58860928 38.04208303 2.58860928 38.04208303 -1.1171875 42.609375 C-3.90297958 44.33848732 -6.69837936 45.68645576 -9.71777344 46.95605469 C-14.41185146 49.10323886 -18.76210595 51.91702046 -23.1875 54.5625 C-25.28318736 55.78593097 -27.3808933 57.00590987 -29.48046875 58.22265625 C-30.55216309 58.84414551 -31.62385742 59.46563477 -32.72802734 60.10595703 C-39.24091705 63.87606584 -45.76092659 67.6338156 -52.28149414 71.390625 C-65.7865443 79.17514261 -79.24165233 87.04507175 -92.6953125 94.91796875 C-93.79214355 95.55919678 -94.88897461 96.2004248 -96.01904297 96.86108398 C-98.12547936 98.09257094 -100.23130389 99.32510525 -102.33642578 100.55883789 C-103.28243652 101.11176514 -104.22844727 101.66469238 -105.203125 102.234375 C-106.03489258 102.72131836 -106.86666016 103.20826172 -107.72363281 103.70996094 C-109.78671306 104.87912825 -111.86809108 105.96282202 -114 107 C-114.02505615 105.85934082 -114.0501123 104.71868164 -114.07592773 103.54345703 C-114.16994293 99.32035659 -114.27017787 95.09742291 -114.37231445 90.87451172 C-114.41568565 89.04512425 -114.45735911 87.21569573 -114.49731445 85.38623047 C-114.55496418 82.75996514 -114.61867365 80.1339069 -114.68359375 77.5078125 C-114.70030624 76.68693146 -114.71701874 75.86605042 -114.73423767 75.02029419 C-114.7431387 70.8766304 -114.7431387 70.8766304 -116 67 C-115.13584473 66.58097412 -114.27168945 66.16194824 -113.38134766 65.73022461 C-105.14497714 61.69798587 -97.22541229 57.31208885 -89.375 52.5625 C-87.02819857 51.15393262 -84.67857953 49.75011785 -82.328125 48.34765625 C-81.73061432 47.99083771 -81.13310364 47.63401917 -80.51748657 47.26638794 C-72.6563102 42.58529697 -64.69314709 38.08152512 -56.72802734 33.58032227 C-50.01439689 29.77764228 -50.01439689 29.77764228 -43.43261719 25.75390625 C-42.84616425 25.3830188 -42.2597113 25.01213135 -41.65548706 24.63000488 C-40.02264674 23.59043383 -38.39754606 22.53873517 -36.77294922 21.48632812 C-34 20 -34 20 -30 20 C-30 19.34 -30 18.68 -30 18 C-29.05253906 17.48953125 -29.05253906 17.48953125 -28.0859375 16.96875 C-23.80866458 14.65138024 -19.54133211 12.32285497 -15.328125 9.890625 C-14.71275879 9.53548828 -14.09739258 9.18035156 -13.46337891 8.81445312 C-12.26083435 8.11815907 -11.05991412 7.41905018 -9.86083984 6.71679688 C-6.65206078 4.85893688 -3.48176455 3.27795103 0 2 C0 1.34 0 0.68 0 0 Z " fill="#40A597" transform="translate(256,145)"/>
<path d="M0 0 C0.83047852 0.44303467 1.66095703 0.88606934 2.51660156 1.3425293 C5.50667124 2.97117078 8.47355048 4.6368053 11.4375 6.3125 C12.53715088 6.93133057 13.63680176 7.55016113 14.76977539 8.18774414 C23.17674044 12.93381491 31.53350023 17.76314147 39.85766602 22.65283203 C45.2891671 25.84298178 50.73762654 28.99863269 56.21484375 32.109375 C58.01562199 33.13540877 59.81617912 34.16182979 61.61672974 35.18826294 C63.34191367 36.16869681 65.07119076 37.14191708 66.80053711 38.11499023 C68.3649353 39.0074646 68.3649353 39.0074646 69.9609375 39.91796875 C70.88696777 40.44156982 71.81299805 40.9651709 72.76708984 41.50463867 C75 43 75 43 77 46 C77.17207928 48.90184868 77.23201104 51.70544247 77.1953125 54.60546875 C77.1924826 55.44467361 77.18965271 56.28387848 77.18673706 57.14851379 C77.17554385 59.82832103 77.15044101 62.50779381 77.125 65.1875 C77.11496908 67.00455246 77.10584343 68.82161017 77.09765625 70.63867188 C77.07560734 75.09257675 77.04108351 79.54623167 77 84 C72.89102713 82.7423893 69.34593014 81.22023808 65.640625 79.05078125 C64.11115234 78.16132813 64.11115234 78.16132813 62.55078125 77.25390625 C61.46152344 76.61324219 60.37226562 75.97257812 59.25 75.3125 C58.09279028 74.63743361 56.93523143 73.96296538 55.77734375 73.2890625 C53.37429418 71.88984195 50.9727608 70.48807065 48.57226562 69.08447266 C43.06213188 65.86550635 37.52992383 62.68480155 32 59.5 C29.83323021 58.25017876 27.66656385 57.0001782 25.5 55.75 C24.4275 55.13125 23.355 54.5125 22.25 53.875 C12.5 48.25 12.5 48.25 9.24536133 46.37231445 C7.09416776 45.13124746 4.94296345 43.89019907 2.79174805 42.64916992 C-2.25962999 39.73501656 -7.3109031 36.82068182 -12.36178589 33.90567017 C-14.15066918 32.87326522 -15.93958717 31.84092044 -17.72851562 30.80859375 C-19.97337636 29.51314052 -22.2181719 28.2175743 -24.46289062 26.921875 C-29.63571774 23.93692086 -34.81145009 20.95754683 -40 18 C-38.78555983 14.3566795 -37.96009947 14.11433148 -34.6953125 12.29296875 C-33.80666504 11.79095947 -32.91801758 11.2889502 -32.00244141 10.77172852 C-31.05288574 10.24893311 -30.10333008 9.7261377 -29.125 9.1875 C-28.1664209 8.65503662 -27.2078418 8.12257324 -26.22021484 7.57397461 C-24.32659654 6.52237517 -22.43160952 5.47323602 -20.53515625 4.42675781 C-18.45488723 3.25600549 -16.4234889 2.04805325 -14.40625 0.7734375 C-13.4884375 0.20882812 -12.570625 -0.35578125 -11.625 -0.9375 C-10.87476562 -1.42089844 -10.12453125 -1.90429688 -9.3515625 -2.40234375 C-5.6733653 -3.33716795 -3.18409771 -1.71073155 0 0 Z " fill="#79C0B5" transform="translate(65,168)"/>
<path d="M0 0 C5.11227414 0.85204569 7.16751273 1.37262625 11.359375 3.8515625 C12.37902344 4.44775391 13.39867187 5.04394531 14.44921875 5.65820312 C15.53847656 6.30724609 16.62773437 6.95628906 17.75 7.625 C18.90697352 8.30502178 20.06453713 8.98404047 21.22265625 9.66210938 C23.62665148 11.07067324 26.02805773 12.48350641 28.42773438 13.89941406 C33.92834935 17.1401701 39.4660611 20.31661535 45 23.5 C47.16422521 24.74841588 49.32828719 25.9971148 51.4921875 27.24609375 C55.85065388 29.76069436 60.21012191 32.27354661 64.5703125 34.78515625 C76.40125948 41.60221524 88.21852494 48.44113336 99.99853516 55.34594727 C105.62578472 58.63878061 111.28454227 61.86261975 117 65 C117 65.66 117 66.32 117 67 C115.77990234 67.69222656 115.77990234 67.69222656 114.53515625 68.3984375 C113.38917969 69.05070312 112.24320312 69.70296875 111.0625 70.375 C110.13751709 70.90105835 110.13751709 70.90105835 109.19384766 71.43774414 C105.58358336 73.49876421 101.99452923 75.59047095 98.42578125 77.72265625 C97.66837646 78.17398926 96.91097168 78.62532227 96.13061523 79.09033203 C94.64710021 79.97636254 93.16605968 80.86655173 91.68774414 81.76123047 C91.00446045 82.16873535 90.32117676 82.57624023 89.6171875 82.99609375 C89.01503418 83.35888428 88.41288086 83.7216748 87.79248047 84.09545898 C85.75397582 85.1241514 84.28528535 85.77022441 82 86 C79.52075195 84.98706055 79.52075195 84.98706055 76.73828125 83.38671875 C75.710979 82.80349854 74.68367676 82.22027832 73.62524414 81.61938477 C72.53203857 80.98186279 71.43883301 80.34434082 70.3125 79.6875 C69.18126709 79.04031006 68.05003418 78.39312012 66.88452148 77.72631836 C63.58141487 75.83140917 60.28876853 73.91966482 57 72 C56.20271484 71.53561523 55.40542969 71.07123047 54.58398438 70.59277344 C51.24086676 68.64132572 47.9072653 66.67439673 44.578125 64.69921875 C38.68365356 61.21062661 32.74636425 57.79599623 26.8125 54.375 C25.75554932 53.765354 24.69859863 53.15570801 23.60961914 52.52758789 C15.7506799 47.9989449 7.87539607 43.50022633 0 39 C0 26.13 0 13.26 0 0 Z " fill="#79C0B5" transform="translate(140,14)"/>
<path d="M0 0 C2.77661133 1.17749023 2.77661133 1.17749023 5.58203125 2.80859375 C6.59587891 3.39060547 7.60972656 3.97261719 8.65429688 4.57226562 C9.69650391 5.18779297 10.73871094 5.80332031 11.8125 6.4375 C12.87404297 7.04916016 13.93558594 7.66082031 15.02929688 8.29101562 C22.77711816 12.77711816 22.77711816 12.77711816 24 14 C24.08861992 16.8116338 24.11522355 19.59858255 24.09765625 22.41015625 C24.0962413 23.25219101 24.09482635 24.09422577 24.09336853 24.96177673 C24.08775263 27.66205335 24.07519748 30.36224828 24.0625 33.0625 C24.05748705 34.88867068 24.05292379 36.71484266 24.04882812 38.54101562 C24.03777804 43.02737542 24.02050279 47.51367384 24 52 C19.16389678 51.50738202 15.71685781 50.63131584 11.54296875 48.1484375 C10.52444824 47.5510376 9.50592773 46.9536377 8.45654297 46.33813477 C7.37775879 45.69030029 6.29897461 45.04246582 5.1875 44.375 C3.4718674 43.36426166 1.756223 42.35354278 0.03991699 41.34394836 C-1.751917 40.28814326 -3.54084561 39.22753362 -5.32958984 38.16650391 C-10.81815315 34.91806567 -16.35029937 31.74506942 -21.87948608 28.56646729 C-24.66351601 26.96517672 -27.44492652 25.35935066 -30.2265625 23.75390625 C-31.15033691 23.22095947 -32.07411133 22.6880127 -33.02587891 22.13891602 C-33.67733887 21.76307373 -34.32879883 21.38723145 -35 21 C-35 19.68 -35 18.36 -35 17 C-34.12859375 16.50371094 -33.2571875 16.00742188 -32.359375 15.49609375 C-4.43786528 -0.4218868 -4.43786528 -0.4218868 0 0 Z " fill="#78BFB5" transform="translate(118,133)"/>
<path d="M0 0 C8.16013818 3.31788552 15.80679831 8.08655849 23.375 12.5625 C24.39142578 13.15949707 25.40785156 13.75649414 26.45507812 14.37158203 C29.63926056 16.24344468 32.81994253 18.12113947 36 20 C38.14840456 21.26698294 40.29684164 22.53391074 42.4453125 23.80078125 C47.63325411 26.8620528 52.81795507 29.92875823 58 33 C56.75528828 36.73413515 55.92601205 36.834015 52.5 38.5625 C47.19866756 41.33206154 42.02723714 44.27434839 36.875 47.3125 C35.73708008 47.97971069 35.73708008 47.97971069 34.57617188 48.66040039 C31.09043113 50.56437493 31.09043113 50.56437493 28 53 C23.24710586 53.41692054 20.50880241 52.56986415 16.41796875 50.19140625 C15.40412109 49.60939453 14.39027344 49.02738281 13.34570312 48.42773438 C12.30349609 47.81220703 11.26128906 47.19667969 10.1875 46.5625 C9.12595703 45.95083984 8.06441406 45.33917969 6.97070312 44.70898438 C-0.77711816 40.22288184 -0.77711816 40.22288184 -2 39 C-2.08861992 36.1883662 -2.11522355 33.40141745 -2.09765625 30.58984375 C-2.0962413 29.74780899 -2.09482635 28.90577423 -2.09336853 28.03822327 C-2.08775263 25.33794665 -2.07519748 22.63775172 -2.0625 19.9375 C-2.05748705 18.11132932 -2.05292379 16.28515734 -2.04882812 14.45898438 C-2.03777804 9.97262458 -2.02050279 5.48632616 -2 1 C-1.34 0.67 -0.68 0.34 0 0 Z " fill="#78C0B5" transform="translate(142,79)"/>
<path d="M0 0 C3.0176806 1.55083161 5.94976377 3.21954347 8.875 4.9375 C9.65875 5.38029297 10.4425 5.82308594 11.25 6.27929688 C11.98992187 6.71177734 12.72984375 7.14425781 13.4921875 7.58984375 C14.16620605 7.98034912 14.84022461 8.37085449 15.53466797 8.77319336 C16.01822754 9.17803955 16.50178711 9.58288574 17 10 C17 10.99 17 11.98 17 13 C15.98421875 13.56847656 14.9684375 14.13695312 13.921875 14.72265625 C12.5311467 15.50241995 11.14052955 16.28238192 9.75 17.0625 C9.02796387 17.46718506 8.30592773 17.87187012 7.56201172 18.28881836 C2.07629756 21.37218476 -3.3478566 24.54414818 -8.7421875 27.78515625 C-11 29 -11 29 -13 29 C-13 29.66 -13 30.32 -13 31 C-19.2792632 30.57471126 -23.58387305 28.39417115 -28.9375 25.1875 C-29.71673828 24.74857422 -30.49597656 24.30964844 -31.29882812 23.85742188 C-32.03423828 23.42365234 -32.76964844 22.98988281 -33.52734375 22.54296875 C-34.19499756 22.15133545 -34.86265137 21.75970215 -35.55053711 21.35620117 C-36.02885986 20.90865479 -36.50718262 20.4611084 -37 20 C-37 18.68 -37 17.36 -37 16 C-36.32195312 15.63648438 -35.64390625 15.27296875 -34.9453125 14.8984375 C-30.22411778 12.34820766 -25.53726399 9.76424609 -20.9375 7 C-20.12667969 6.5153125 -19.31585938 6.030625 -18.48046875 5.53125 C-16.7514653 4.46389669 -15.04700098 3.35619622 -13.36328125 2.21875 C-12.50089844 1.6515625 -11.63851562 1.084375 -10.75 0.5 C-9.98171875 -0.0259375 -9.2134375 -0.551875 -8.421875 -1.09375 C-4.89896027 -2.41200196 -3.41131842 -1.5338662 0 0 Z " fill="#77BFB5" transform="translate(239,134)"/>
<path d="M0 0 C3.89289556 2.14359156 7.73747798 4.35058406 11.55078125 6.6328125 C12.33904297 7.10074219 13.12730469 7.56867188 13.93945312 8.05078125 C15.87430579 9.19996647 17.80715353 10.35238253 19.73828125 11.5078125 C18.97558594 15.32128906 18.97558594 15.32128906 16.83984375 17 C16.02257812 17.45632812 15.2053125 17.91265625 14.36328125 18.3828125 C13.46222656 18.89328125 12.56117187 19.40375 11.6328125 19.9296875 C10.67761719 20.45046875 9.72242188 20.97125 8.73828125 21.5078125 C7.79339844 22.02859375 6.84851563 22.549375 5.875 23.0859375 C4.01195595 24.10635997 2.14352752 25.11702095 0.26953125 26.1171875 C-1.87333942 27.29444361 -3.89730367 28.55839458 -5.94921875 29.8828125 C-9.88024179 31.8112389 -12.99581848 32.18931096 -17.26171875 31.5078125 C-20.47379692 30.22424101 -23.33092432 28.52134473 -26.26171875 26.6953125 C-27.42380859 26.01758789 -27.42380859 26.01758789 -28.609375 25.32617188 C-32.7863071 22.80306915 -32.7863071 22.80306915 -34.26171875 21.5078125 C-34.26171875 20.5178125 -34.26171875 19.5278125 -34.26171875 18.5078125 C-31.35536725 15.70525927 -30.47346827 15.5078125 -26.26171875 15.5078125 C-26.26171875 14.8478125 -26.26171875 14.1878125 -26.26171875 13.5078125 C-24.59692383 12.31860352 -24.59692383 12.31860352 -22.28125 11.01171875 C-21.02924805 10.29725586 -21.02924805 10.29725586 -19.75195312 9.56835938 C-18.86830078 9.07400391 -17.98464844 8.57964844 -17.07421875 8.0703125 C-15.35144245 7.09265943 -13.62878288 6.11480064 -11.90625 5.13671875 C-11.0910791 4.68312988 -10.2759082 4.22954102 -9.43603516 3.76220703 C-7.10920591 2.46340525 -7.10920591 2.46340525 -4.4609375 0.53515625 C-2.26171875 -0.4921875 -2.26171875 -0.4921875 0 0 Z " fill="#77BFB5" transform="translate(60.26171875,99.4921875)"/>
<path d="M0 0 C2.31 0 4.62 0 7 0 C9.31 8.58 11.62 17.16 14 26 C15.60887394 22.78225211 16.59336789 20.21610269 17.5078125 16.796875 C17.77207031 15.8171875 18.03632812 14.8375 18.30859375 13.828125 C18.57800781 12.81234375 18.84742187 11.7965625 19.125 10.75 C19.40214844 9.71875 19.67929687 8.6875 19.96484375 7.625 C20.64706002 5.0843325 21.32529719 2.54267116 22 0 C24.31 0 26.62 0 29 0 C29 14.52 29 29.04 29 44 C27.35 44 25.7 44 24 44 C23.67 34.43 23.34 24.86 23 15 C21.02 21.93 19.04 28.86 17 36 C15.35 36 13.7 36 12 36 C9.69 28.08 7.38 20.16 5 12 C4.67 22.56 4.34 33.12 4 44 C2.68 44 1.36 44 0 44 C0 29.48 0 14.96 0 0 Z " fill="#3FA192" transform="translate(32,297)"/>
<path d="M0 0 C2.81172702 1.19647958 4.34877619 2.092371 6.12109375 4.5625 C7.45634231 8.26558934 7.20842944 11.85022731 7.125 15.75 C7.08375 18.4725 7.0425 21.195 7 24 C1.06 24 -4.88 24 -11 24 C-10.896875 26.248125 -10.79375 28.49625 -10.6875 30.8125 C-10.62949219 32.07707031 -10.57148437 33.34164062 -10.51171875 34.64453125 C-10.25367653 37.91084508 -10.25367653 37.91084508 -8.71875 39.9375 C-6.58301707 41.25777127 -5.30452957 41.31005883 -2.8125 41.1875 C-1.554375 41.125625 -0.29625 41.06375 1 41 C1.33 38.36 1.66 35.72 2 33 C3.65 33 5.3 33 7 33 C6.91253716 34.43861294 6.80434652 35.87597508 6.6875 37.3125 C6.62949219 38.11300781 6.57148437 38.91351563 6.51171875 39.73828125 C5.90500435 42.41986625 5.15637846 43.3353373 3 45 C0.22947819 45.92350727 -1.56688758 46.16329585 -4.4375 46.1875 C-5.58025391 46.20876953 -5.58025391 46.20876953 -6.74609375 46.23046875 C-9.302832 45.96903451 -10.83886845 45.3811053 -13 44 C-15.49067291 40.26399064 -15.32324941 37.30202267 -15.3359375 32.97265625 C-15.3425943 32.18733017 -15.3492511 31.40200409 -15.35610962 30.59288025 C-15.36622915 28.93279359 -15.37092685 27.2726663 -15.37060547 25.61254883 C-15.37497846 23.07500096 -15.41130172 20.5391932 -15.44921875 18.00195312 C-15.45508717 16.38802678 -15.4590564 14.77409217 -15.4609375 13.16015625 C-15.47530853 12.4027565 -15.48967957 11.64535675 -15.50448608 10.86500549 C-15.47382567 7.32342683 -15.30218843 5.38848923 -13.09619141 2.55249023 C-8.87107038 -0.57673695 -5.12846695 -0.49687569 0 0 Z M-11 8 C-11.48195275 11.04440135 -11.48195275 11.04440135 -11.25 14.25 C-11.1675 16.1475 -11.085 18.045 -11 20 C-6.71 20 -2.42 20 2 20 C2.0928125 16.8753125 2.0928125 16.8753125 2.1875 13.6875 C2.22230469 12.51574219 2.25710937 11.34398437 2.29296875 10.13671875 C2.26600694 7.04623285 2.26600694 7.04623285 0.671875 5.109375 C-4.05130602 1.97530161 -7.87467397 3.95113009 -11 8 Z " fill="#409F91" transform="translate(97,296)"/>
<path d="M0 0 C4.6 2.2 4.6 2.2 6 5 C6.08705146 7.98970289 6.11550145 10.95584955 6.09765625 13.9453125 C6.0962413 14.8303244 6.09482635 15.7153363 6.09336853 16.62716675 C6.0877614 19.45981191 6.07520771 22.29237864 6.0625 25.125 C6.05748592 27.04296761 6.05292285 28.96093646 6.04882812 30.87890625 C6.03778966 35.58596782 6.02052025 40.2929706 6 45 C4.35 45 2.7 45 1 45 C0.97494385 43.82381104 0.9498877 42.64762207 0.92407227 41.43579102 C0.83017194 37.08785378 0.72990952 32.74008284 0.62768555 28.39233398 C0.58427067 26.50760782 0.54260057 24.62284064 0.50268555 22.73803711 C0.44514107 20.03486751 0.38140196 17.33190564 0.31640625 14.62890625 C0.29969376 13.78099014 0.28298126 12.93307404 0.26576233 12.0594635 C0.53590805 8.21707924 0.53590805 8.21707924 -1 5 C-5.76071359 5.1711188 -5.76071359 5.1711188 -9.69458008 7.54785156 C-11.5224317 10.98135477 -11.47911824 14.24630826 -11.51171875 18.046875 C-11.52966995 18.81807678 -11.54762115 19.58927856 -11.56611633 20.3838501 C-11.62015769 22.83917832 -11.6540942 25.29431286 -11.6875 27.75 C-11.72067864 29.41799566 -11.75516882 31.08596579 -11.79101562 32.75390625 C-11.87588022 36.8357976 -11.94272026 40.91763214 -12 45 C-13.32 45 -14.64 45 -16 45 C-16 30.48 -16 15.96 -16 1 C-15.34 1 -14.68 1 -14 1 C-13.34 1.99 -12.68 2.98 -12 4 C-11.319375 3.34 -10.63875 2.68 -9.9375 2 C-6.26383061 -0.50122172 -4.36916255 -0.54614532 0 0 Z " fill="#3AA191" transform="translate(237,296)"/>
<path d="M0 0 C3 0.5 3 0.5 5.375 1.9375 C7.76173366 5.70119538 7.33387931 9.15956893 7 13.5 C5.68 13.5 4.36 13.5 3 13.5 C2.67 11.19 2.34 8.88 2 6.5 C0.16299211 5.72757731 0.16299211 5.72757731 -2 5.5 C-4.77639324 7.45375821 -5.39833408 9.25308453 -6 12.5 C-6.1498782 15.04276118 -6.25575347 17.5646265 -6.31640625 20.109375 C-6.33718735 20.83618469 -6.35796844 21.56299438 -6.37937927 22.31182861 C-6.44455512 24.62445991 -6.5036104 26.93720093 -6.5625 29.25 C-6.60571566 30.82162575 -6.64933092 32.39324056 -6.69335938 33.96484375 C-6.80020356 37.80978453 -6.90156024 41.65483524 -7 45.5 C-8.32 45.5 -9.64 45.5 -11 45.5 C-11 30.98 -11 16.46 -11 1.5 C-10.34 1.5 -9.68 1.5 -9 1.5 C-8.34 2.49 -7.68 3.48 -7 4.5 C-6.46375 3.84 -5.9275 3.18 -5.375 2.5 C-3 0.5 -3 0.5 0 0 Z " fill="#3EA090" transform="translate(137,295.5)"/>
<path d="M0 0 C1.32 0 2.64 0 4 0 C4 13.2 4 26.4 4 40 C8.29 40 12.58 40 17 40 C17 41.32 17 42.64 17 44 C11.39 44 5.78 44 0 44 C0 29.48 0 14.96 0 0 Z " fill="#499C8D" transform="translate(161,297)"/>
<path d="M0 0 C1.32 0 2.64 0 4 0 C4 14.52 4 29.04 4 44 C2.68 44 1.36 44 0 44 C0 29.48 0 14.96 0 0 Z " fill="#3FA092" transform="translate(194,297)"/>
<path d="M0 0 C1.32 0 2.64 0 4 0 C4 7.59 4 15.18 4 23 C3.34 23 2.68 23 2 23 C2.04125 24.258125 2.0825 25.51625 2.125 26.8125 C2.2390374 30.29064073 2.05925681 30.91111478 0 34 C0 22.78 0 11.56 0 0 Z " fill="#3AA294" transform="translate(161,297)"/>
<path d="M0 0 C0.66 0 1.32 0 2 0 C3.69196504 3.38393008 3.11986549 7.22477791 3.09765625 10.9453125 C3.0962413 11.8303244 3.09482635 12.7153363 3.09336853 13.62716675 C3.0877614 16.45981191 3.07520771 19.29237864 3.0625 22.125 C3.05748592 24.04296761 3.05292285 25.96093646 3.04882812 27.87890625 C3.03778966 32.58596782 3.02052025 37.2929706 3 42 C2.34 41.67 1.68 41.34 1 41 C0.67 27.47 0.34 13.94 0 0 Z " fill="#3CA597" transform="translate(221,297)"/>
<path d="M0 0 C0.33 0 0.66 0 1 0 C1.33 9.9 1.66 19.8 2 30 C1.9690625 26.101875 1.9690625 26.101875 1.9375 22.125 C1.91221281 15.67800057 2.18669043 9.40481286 3 3 C3.33 3 3.66 3 4 3 C4 13.23 4 23.46 4 34 C2.68 34 1.36 34 0 34 C0 22.78 0 11.56 0 0 Z " fill="#469D91" transform="translate(32,307)"/>
<path d="M0 0 C0.66 0 1.32 0 2 0 C2.33 1.98 2.66 3.96 3 6 C2.67 6 2.34 6 2 6 C1.67 17.55 1.34 29.1 1 41 C1.66 41 2.32 41 3 41 C3 39.35 3 37.7 3 36 C3.33 36 3.66 36 4 36 C4 38.64 4 41.28 4 44 C2.68 44 1.36 44 0 44 C0 29.48 0 14.96 0 0 Z " fill="#44988A" transform="translate(126,297)"/>
<path d="M0 0 C2.00293347 3.00440021 2.49271626 4.70993945 3.125 8.1875 C3.29257812 9.08855469 3.46015625 9.98960937 3.6328125 10.91796875 C3.75398438 11.60503906 3.87515625 12.29210937 4 13 C3.34 13 2.68 13 2 13 C2 14.65 2 16.3 2 18 C0.30566082 14.9530371 -0.49467112 12.17178534 -1.125 8.75 C-1.29257812 7.85796875 -1.46015625 6.9659375 -1.6328125 6.046875 C-1.81457031 5.03367187 -1.81457031 5.03367187 -2 4 C-1.34 4 -0.68 4 0 4 C0 2.68 0 1.36 0 0 Z " fill="#449B8B" transform="translate(41,309)"/>
<path d="M0 0 C0 2 0 2 -1.375 3.5 C-1.91125 3.995 -2.4475 4.49 -3 5 C-3.66 5.66 -4.32 6.32 -5 7 C-5.99 7 -6.98 7 -8 7 C-11.11785113 7.64644661 -11.11785113 7.64644661 -12 10 C-12.99 10 -13.98 10 -15 10 C-13.64625203 5.93875609 -11.73741172 5.39684351 -8.0625 3.3125 C-6.98097656 2.68988281 -5.89945313 2.06726563 -4.78515625 1.42578125 C-2 0 -2 0 0 0 Z " fill="#499D90" transform="translate(40,72)"/>
<path d="M0 0 C-0.66 4.95 -1.32 9.9 -2 15 C-2.66 14.67 -3.32 14.34 -4 14 C-4 9.71 -4 5.42 -4 1 C-2 0 -2 0 0 0 Z " fill="#38A896" transform="translate(131,301)"/>
<path d="M0 0 C-0.66 0 -1.32 0 -2 0 C-2.33 0.99 -2.66 1.98 -3 3 C-3.99 3 -4.98 3 -6 3 C-6.226875 3.639375 -6.45375 4.27875 -6.6875 4.9375 C-8 7 -8 7 -10.5 7.875 C-11.7375 7.936875 -11.7375 7.936875 -13 8 C-13.66 7.34 -14.32 6.68 -15 6 C-13.07010782 4.80017556 -11.13080772 3.61547182 -9.1875 2.4375 C-8.10855469 1.77621094 -7.02960938 1.11492188 -5.91796875 0.43359375 C-3 -1 -3 -1 0 0 Z " fill="#509E91" transform="translate(142,14)"/>
<path d="M0 0 C2.31 0 4.62 0 7 0 C5.125 1.0625 5.125 1.0625 3 2 C2.34 1.67 1.68 1.34 1 1 C1.25561323 3.3431213 1.59270772 5.67843403 2 8 C2.66 8.33 3.32 8.66 4 9 C4 10.32 4 11.64 4 13 C3.34 13 2.68 13 2 13 C1.67 13.66 1.34 14.32 1 15 C-0.32286246 10.03926578 -0.08893197 5.08888488 0 0 Z " fill="#37A18A" transform="translate(32,297)"/>
<path d="M0 0 C0.66 0.66 1.32 1.32 2 2 C-0.31 2 -2.62 2 -5 2 C-3.68 2.33 -2.36 2.66 -1 3 C-1.33 3.66 -1.66 4.32 -2 5 C-3.66500443 5.34153937 -5.33178677 5.67449498 -7 6 C-7.66 6.66 -8.32 7.32 -9 8 C-9.75 6.25 -9.75 6.25 -10 4 C-7.17829735 -0.06325182 -4.81423313 -0.62794345 0 0 Z " fill="#379888" transform="translate(140,296)"/>
<path d="M0 0 C0 0.99 0 1.98 0 3 C-1.32 3.33 -2.64 3.66 -4 4 C-4 3.34 -4 2.68 -4 2 C-2.68 1.34 -1.36 0.68 0 0 Z M-5.8125 4.375 C-4.9153125 4.684375 -4.9153125 4.684375 -4 5 C-7.20336822 7.83374881 -9.78087253 8.5205537 -14 9 C-9.0546875 3.81919643 -9.0546875 3.81919643 -5.8125 4.375 Z " fill="#4EA294" transform="translate(230,161)"/>
<path d="M0 0 C0.33 0.66 0.66 1.32 1 2 C-2.61592657 5.19546999 -5.42582612 7.34821499 -10 9 C-10.66 9.66 -11.32 10.32 -12 11 C-12 9.68 -12 8.36 -12 7 C-9.375 5.078125 -9.375 5.078125 -6 3.25 C-4.88625 2.63640625 -3.7725 2.0228125 -2.625 1.390625 C-1.75875 0.93171875 -0.8925 0.4728125 0 0 Z " fill="#4D9C90" transform="translate(37,138)"/>
<path d="M0 0 C0.66 0.33 1.32 0.66 2 1 C0.5 4 0.5 4 -2 7 C-4.84663895 7.55411674 -7.06977319 7.29302268 -10 7 C-6.81404865 4.36021174 -3.69029454 1.89501612 0 0 Z " fill="#479E90" transform="translate(110,30)"/>
<path d="M0 0 C0.66 0.33 1.32 0.66 2 1 C0.4375 3.4375 0.4375 3.4375 -2 6 C-5.75 6.8125 -5.75 6.8125 -9 7 C-9.33 6.34 -9.66 5.68 -10 5 C-8.38007835 4.13624104 -6.75388139 3.28424146 -5.125 2.4375 C-4.22007812 1.96183594 -3.31515625 1.48617187 -2.3828125 0.99609375 C-1.20332031 0.50302734 -1.20332031 0.50302734 0 0 Z " fill="#529F92" transform="translate(150,207)"/>
<path d="M0 0 C1.32 0.33 2.64 0.66 4 1 C2.71186658 1.83878455 1.41936744 2.67086783 0.125 3.5 C-0.59429687 3.9640625 -1.31359375 4.428125 -2.0546875 4.90625 C-4 6 -4 6 -6 6 C-6.66 4.35 -7.32 2.7 -8 1 C-7.071875 1.2784375 -7.071875 1.2784375 -6.125 1.5625 C-3.95839822 2.23686176 -3.95839822 2.23686176 -2 1 C-1.34 1.33 -0.68 1.66 0 2 C0 1.34 0 0.68 0 0 Z " fill="#489D8F" transform="translate(252,185)"/>
<path d="M0 0 C0.99 0.33 1.98 0.66 3 1 C3.33 3.64 3.66 6.28 4 9 C2.68 8.67 1.36 8.34 0 8 C0 5.36 0 2.72 0 0 Z " fill="#3FAC9F" transform="translate(33,298)"/>
<path d="M0 0 C0.99 0.33 1.98 0.66 3 1 C1.37829621 2.00533667 -0.24747237 3.00411907 -1.875 4 C-3.23238281 4.8353125 -3.23238281 4.8353125 -4.6171875 5.6875 C-7 7 -7 7 -9 7 C-9 6.34 -9 5.68 -9 5 C-6 3 -6 3 -3 3 C-2.67 2.34 -2.34 1.68 -2 1 C-1.34 0.67 -0.68 0.34 0 0 Z " fill="#4A9A8E" transform="translate(241,192)"/>
<path d="M0 0 C2.64 0 5.28 0 8 0 C8.33 1.65 8.66 3.3 9 5 C5.54074837 3.7508258 2.85306797 2.32472205 0 0 Z " fill="#7CB8AE" transform="translate(102,164)"/>
<path d="M0 0 C0.66 0.33 1.32 0.66 2 1 C-1.9050849 4.55007718 -4.97734643 5.81819916 -10 7 C-7.20283196 3.70921407 -3.80471422 1.93694542 0 0 Z " fill="#4F9A8E" transform="translate(50,65)"/>
<path d="M0 0 C-1.28813342 0.83878455 -2.58063256 1.67086783 -3.875 2.5 C-4.59429687 2.9640625 -5.31359375 3.428125 -6.0546875 3.90625 C-8 5 -8 5 -10 5 C-10 4.01 -10 3.02 -10 2 C-8.68 2 -7.36 2 -6 2 C-6 1.34 -6 0.68 -6 0 C-3 -1 -3 -1 0 0 Z " fill="#4B9B90" transform="translate(134,122)"/>
<path d="M0 0 C0 1.32 0 2.64 0 4 C-4.455 4.495 -4.455 4.495 -9 5 C-2.87096774 0 -2.87096774 0 0 0 Z " fill="#4BA192" transform="translate(224,100)"/>
<path d="M0 0 C0.33 0.99 0.66 1.98 1 3 C0 5 0 5 -1.875 5.75 C-4 6 -4 6 -7 4 C-4.69 2.68 -2.38 1.36 0 0 Z " fill="#449E8F" transform="translate(62,58)"/>
<path d="M0 0 C1.98 0 3.96 0 6 0 C4.625 2 4.625 2 3 4 C2.34 4 1.68 4 1 4 C0.67 4.99 0.34 5.98 0 7 C-0.66 6.34 -1.32 5.68 -2 5 C-1.34 5 -0.68 5 0 5 C0 3.68 0 2.36 0 1 C0 0.67 0 0.34 0 0 Z " fill="#51A99C" transform="translate(45,131)"/>
<path d="M0 0 C4.21912747 0.4794463 6.79663178 1.16625119 10 4 C9.67 4.66 9.34 5.32 9 6 C6.03 4.35 3.06 2.7 0 1 C0 0.67 0 0.34 0 0 Z " fill="#83B7B0" transform="translate(112,235)"/>
<path d="M0 0 C2.31 0.33 4.62 0.66 7 1 C7.33 2.32 7.66 3.64 8 5 C4.62496331 3.8141763 2.35277269 2.72426311 0 0 Z " fill="#83BAB0" transform="translate(30,122)"/>
<path d="M0 0 C0.99 0.33 1.98 0.66 3 1 C3.6875 3.0625 3.6875 3.0625 4 5 C2.68 5 1.36 5 0 5 C0 3.35 0 1.7 0 0 Z " fill="#2FA899" transform="translate(43,322)"/>
<path d="M0 0 C1.32 0.33 2.64 0.66 4 1 C-1.14285714 5.42857143 -1.14285714 5.42857143 -5 6 C-3.35 4.02 -1.7 2.04 0 0 Z " fill="#499A8E" transform="translate(192,219)"/>
<path d="M0 0 C2.475 0.99 2.475 0.99 5 2 C4.34 3.32 3.68 4.64 3 6 C2.34 6 1.68 6 1 6 C0.67 4.02 0.34 2.04 0 0 Z " fill="#7DB9AF" transform="translate(107,193)"/>
<path d="M0 0 C-1.65 1.32 -3.3 2.64 -5 4 C-5.66 3.67 -6.32 3.34 -7 3 C-6.67 2.01 -6.34 1.02 -6 0 C-3 -1 -3 -1 0 0 Z " fill="#479E90" transform="translate(74,156)"/>
<path d="M0 0 C3.37503669 1.1858237 5.64722731 2.27573689 8 5 C5.69 4.67 3.38 4.34 1 4 C0.67 2.68 0.34 1.36 0 0 Z " fill="#7FB8B1" transform="translate(169,95)"/>
<path d="M0 0 C2.475 0.99 2.475 0.99 5 2 C4.34 3.32 3.68 4.64 3 6 C2.34 6 1.68 6 1 6 C0.67 4.02 0.34 2.04 0 0 Z " fill="#7EB9B0" transform="translate(203,49)"/>
<path d="M0 0 C2.31 0.33 4.62 0.66 7 1 C6.67 1.99 6.34 2.98 6 4 C5.34 4 4.68 4 4 4 C4 3.34 4 2.68 4 2 C2.35 2 0.7 2 -1 2 C-0.67 1.34 -0.34 0.68 0 0 Z " fill="#3FA797" transform="translate(135,297)"/>
<path d="M0 0 C2.02045442 0.60183749 4.02111039 1.27306096 6 2 C6.33 2.66 6.66 3.32 7 4 C4.36 3.67 1.72 3.34 -1 3 C-0.67 2.01 -0.34 1.02 0 0 Z " fill="#7FB8AF" transform="translate(91,184)"/>
<path d="M0 0 C3.96 1.98 3.96 1.98 8 4 C4 5 4 5 1 5 C0.67 3.35 0.34 1.7 0 0 Z " fill="#7FB7B1" transform="translate(243,137)"/>
</svg>
